; NON-PLATED HOLES START AT T1
; THROUGH (PLATED) HOLES START AT T100
M48
INCH
T1C0.051181
T2C0.066944
T3C0.133858
T4C0.078750
T5C0.066917
T6C0.163889
T100C0.015748
T101C0.042000
T102C0.132393
T103C0.044554
T104C0.039379
T105C0.090000
T106C0.011811
T107C0.094488
T108C0.036000
T109C0.047244
T110C0.118000
T111C0.038000
T112C0.125984
T113C0.037401
%
T1
X023770Y007005
X021959Y007005
X023179Y007005
X026801Y007005
X025620Y007005
X022589Y007005
X024990Y007005
X028022Y007005
X026211Y007005
X024360Y007005
X027431Y007005
T2
X049242Y008541
X054478Y008541
T3
X012707Y015709
X077707Y024761
X063612Y015706
X000935Y024755
T4
X055954Y011100
X050718Y011100
T5
X057431Y008541
X052195Y008541
T6
X033205Y008733
X043052Y008733
T100
X048927Y029171
X050738Y027911
X051565Y031061
X030581Y019171
X047864Y012832
X035148Y010313
X035463Y008541
X036919Y025155
X040148Y026730
X039596Y025864
X028652Y022005
X014321Y018856
X037549Y025155
X045108Y012202
X028888Y024761
X013573Y022399
X030620Y025942
X017116Y012793
X049281Y014840
X059754Y030116
X016683Y025352
X012943Y023620
X016722Y026179
X047589Y029722
X030620Y026651
X025069Y011690
X048179Y023305
X030030Y012124
X021801Y022950
X033258Y020431
X016286Y007480
X054594Y026139
X030581Y022635
X040144Y024484
X026998Y024761
X060738Y029053
X019793Y014643
X035344Y009643
X055266Y026375
X037313Y022753
X058651Y028738
X028258Y024761
X026368Y024761
X043770Y026690
X046762Y025588
X024006Y010864
X030305Y023147
X030974Y028344
X035344Y022675
X018730Y012793
X027628Y024761
X035620Y021690
X051368Y026375
X018691Y027517
X035384Y020076
X017943Y015746
X029006Y012124
X021805Y012789
X036289Y025155
X046093Y012202
X045620Y012202
X043337Y026257
X023022Y009801
X021211Y024879
X051565Y027793
X031014Y012124
T101
X024975Y003823
X023006Y001855
X023006Y003823
X026943Y003823
X024975Y001855
X026943Y001855
T102
X033205Y008733
X043052Y008733
T103
X036969Y007525
X037830Y007525
X036108Y007525
X036969Y009525
X039552Y009525
X039552Y007525
X037413Y008525
X036552Y008525
X039996Y008525
X038274Y008525
X038691Y009525
X036108Y009525
X038691Y007525
X037830Y009525
X039135Y008525
T104
X053809Y011690
X055748Y008541
X050905Y008541
X055945Y008541
X050709Y008541
X050512Y008541
X048573Y011690
X056142Y008541
X048573Y011887
X053809Y011494
X053809Y011887
X048573Y011494
T105
X016852Y009361
X021592Y009361
T106
X022431Y029210
X026368Y029210
X025581Y030864
X042116Y029210
X028730Y030864
X035029Y029210
X025581Y029210
X038179Y030864
X019281Y030864
X029518Y029210
X042904Y030864
X035817Y029210
X034242Y030864
X036604Y029210
X024793Y029210
X044478Y030864
X027943Y029210
X043691Y030864
X024006Y030864
X022431Y030864
X036604Y030864
X023218Y030864
X020069Y030864
X040541Y029210
X043691Y029210
X041329Y029210
X031880Y029210
X045266Y029210
X031092Y030864
X031880Y030864
X029518Y030864
X027155Y029210
X019281Y029210
X030305Y029210
X045266Y030864
X020856Y030864
X027155Y030864
X037392Y029210
X032667Y029210
X018494Y030864
X024793Y030864
X046053Y029210
X035029Y030864
X017707Y029210
X028730Y029210
X038966Y030864
X033455Y029210
X020069Y029210
X026368Y030864
X039754Y030864
X016919Y029210
X021644Y029210
X041329Y030864
X027943Y030864
X018494Y029210
X020856Y029210
X030305Y030864
X037392Y030864
X031092Y029210
X033455Y030864
X016919Y030864
X035817Y030864
X024006Y029210
X040541Y030864
X038179Y029210
X038966Y029210
X044478Y029210
X046053Y030864
X039754Y029210
X034242Y029210
X021644Y030864
X042116Y030864
X017707Y030864
X042903Y029210
X023218Y029210
X032667Y030864
T107
X033784Y015487
X046735Y015479
X027250Y015519
X036329Y015480
X042798Y015479
X029847Y015487
X023313Y015519
X040266Y015480
T108
X019715Y010431
X019715Y011211
X018730Y011211
X018730Y010431
T109
X051558Y031710
X058663Y031710
X055514Y031710
X051577Y031710
X053151Y031710
T110
X067067Y033273
X065596Y031642
T111
X031014Y008502
X060793Y007557
X008566Y021264
X009961Y033422
X007629Y021615
X063793Y007557
X030014Y009486
X027029Y008029
X005961Y033422
X029014Y010486
X023029Y008029
X021762Y018068
X057785Y025312
X017754Y022344
X031014Y009486
X000961Y033422
X024029Y008029
X020762Y018068
X002961Y033422
X007961Y033422
X060935Y020998
X018754Y021336
X027455Y005391
X005757Y022317
X019754Y021336
X026455Y005391
X001961Y033422
X071061Y032123
X006693Y021966
X024455Y005391
X018754Y022344
X025455Y005391
X004961Y033422
X023455Y005391
X031014Y010486
X008961Y033422
X077061Y032123
X073061Y032123
X029014Y008502
X026029Y008029
X025029Y008029
X003961Y033422
X062793Y007557
X050108Y020998
X060935Y019998
X006961Y033422
X058785Y025312
X058793Y007557
X030014Y008502
X052077Y025312
X061793Y007557
X017762Y018068
X029014Y009486
X054439Y016454
X015762Y018068
X019762Y018068
X050108Y019998
X055439Y016454
X022455Y005391
X017754Y021336
X030014Y010486
X059793Y007557
X016762Y018068
X056439Y016454
X018762Y018068
X019754Y022344
X075061Y032123
X053077Y025312
T112
X067077Y030391
T113
X044766Y012950
X024454Y012989
X037470Y012950
X038297Y012950
X030989Y012957
X043940Y012950
X039124Y012950
X026108Y012989
X032642Y012957
X045593Y012950
X025281Y012989
X031816Y012957
T00
M30
