G04 MADE WITH FRITZING*
G04 WWW.FRITZING.ORG*
G04 DOUBLE SIDED*
G04 HOLES PLATED*
G04 CONTOUR ON CENTER OF CONTOUR VECTOR*
%ASAXBY*%
%FSLAX23Y23*%
%MOIN*%
%OFA0B0*%
%SFA1.0B1.0*%
%ADD10C,0.039370*%
%ADD11C,0.078000*%
%ADD12C,0.157480*%
%ADD13C,0.057087*%
%ADD14C,0.066000*%
%ADD15C,0.110000*%
%ADD16C,0.043307*%
%ADD17C,0.086614*%
%ADD18C,0.059065*%
%ADD19C,0.162000*%
%ADD20C,0.082000*%
%ADD21C,0.195385*%
%ADD22C,0.072113*%
%ADD23C,0.000772*%
%ADD24R,0.001000X0.001000*%
%LNMASK0*%
G90*
G70*
G54D10*
X4014Y2448D03*
X6074Y2905D03*
X5157Y2779D03*
X3960Y2586D03*
X4334Y2626D03*
X4818Y2331D03*
X3562Y2169D03*
X3538Y2008D03*
X4893Y2917D03*
X5074Y2791D03*
X2181Y1279D03*
X1873Y1279D03*
X1712Y1279D03*
X1629Y748D03*
G54D11*
X2303Y803D03*
X2403Y803D03*
X2503Y803D03*
X2603Y803D03*
X2703Y803D03*
G54D10*
X2302Y980D03*
X2401Y1086D03*
X2507Y1169D03*
X5459Y2614D03*
X1979Y1464D03*
X1794Y1575D03*
G54D11*
X576Y2232D03*
X669Y2197D03*
X763Y2162D03*
X857Y2126D03*
G54D10*
X1432Y1886D03*
X1357Y2240D03*
X1294Y2362D03*
G54D12*
X2331Y1552D03*
X2725Y1552D03*
G54D13*
X2445Y1299D03*
X2528Y1299D03*
X2611Y1299D03*
G54D12*
X2985Y1549D03*
X3378Y1549D03*
G54D13*
X3099Y1296D03*
X3182Y1296D03*
X3264Y1296D03*
G54D12*
X3633Y1548D03*
X4027Y1548D03*
G54D13*
X3747Y1295D03*
X3830Y1295D03*
X3912Y1295D03*
G54D12*
X4280Y1548D03*
X4674Y1548D03*
G54D13*
X4394Y1295D03*
X4477Y1295D03*
X4559Y1295D03*
G54D11*
X2901Y949D03*
X3001Y949D03*
X3101Y949D03*
X2901Y949D03*
X3001Y949D03*
X3101Y949D03*
X3101Y1049D03*
X3001Y1049D03*
X2901Y1049D03*
G54D10*
X3515Y1031D03*
X2901Y1212D03*
X3003Y1212D03*
X3101Y1212D03*
X4562Y1220D03*
X4511Y1220D03*
X4609Y1220D03*
G54D11*
X2901Y850D03*
X3001Y850D03*
X3101Y850D03*
G54D10*
X4928Y1484D03*
X4786Y1283D03*
X3546Y854D03*
X3534Y964D03*
X2180Y2295D03*
X2121Y2488D03*
X4015Y2673D03*
X4377Y2669D03*
X4676Y2559D03*
G54D11*
X5879Y756D03*
X5979Y756D03*
X6079Y756D03*
X6179Y756D03*
X6279Y756D03*
X6379Y756D03*
X2246Y539D03*
X2346Y539D03*
X2446Y539D03*
X2546Y539D03*
X2646Y539D03*
X2746Y539D03*
G54D14*
X1972Y1121D03*
X1873Y1121D03*
X1873Y1043D03*
X1972Y1043D03*
G54D15*
X2159Y936D03*
X1685Y936D03*
G54D10*
X4759Y2972D03*
X5865Y2874D03*
G54D11*
X5208Y2531D03*
X5308Y2531D03*
X5779Y2531D03*
X5879Y2531D03*
X6094Y2100D03*
X6094Y2000D03*
X5644Y1645D03*
X5444Y1645D03*
X5544Y1645D03*
X5011Y2000D03*
X5011Y2100D03*
G54D10*
X3534Y2268D03*
X3629Y2516D03*
X3692Y2516D03*
X3755Y2516D03*
X3731Y2275D03*
X3062Y2594D03*
X3097Y2834D03*
X3062Y2665D03*
X3058Y2264D03*
X3031Y2315D03*
X2865Y2201D03*
X3326Y2043D03*
X2889Y2476D03*
X2826Y2476D03*
X2763Y2476D03*
X2700Y2476D03*
X2637Y2476D03*
X5527Y2638D03*
X5137Y2638D03*
X5157Y3106D03*
G54D16*
X1692Y2921D03*
X1771Y2921D03*
X1849Y2921D03*
X1928Y2921D03*
X2007Y2921D03*
X2086Y2921D03*
X2164Y2921D03*
X2243Y2921D03*
X2322Y2921D03*
X2401Y2921D03*
X2479Y2921D03*
X2558Y2921D03*
X2637Y2921D03*
X2716Y2921D03*
X2794Y2921D03*
X2873Y2921D03*
X2952Y2921D03*
X3031Y2921D03*
X3109Y2921D03*
X3188Y2921D03*
X3267Y2921D03*
X3346Y2921D03*
X3424Y2921D03*
X3503Y2921D03*
X3582Y2921D03*
X3660Y2921D03*
X3739Y2921D03*
X3818Y2921D03*
X3897Y2921D03*
X3975Y2921D03*
X4054Y2921D03*
X4133Y2921D03*
X4212Y2921D03*
X4290Y2921D03*
X4369Y2921D03*
X4448Y2921D03*
X4527Y2921D03*
X4605Y2921D03*
G54D17*
X5158Y3171D03*
X5315Y3171D03*
X5551Y3171D03*
X5866Y3171D03*
G54D16*
X1692Y3086D03*
X1771Y3086D03*
X1849Y3086D03*
X1928Y3086D03*
X2007Y3086D03*
X2086Y3086D03*
X2164Y3086D03*
X2243Y3086D03*
X2322Y3086D03*
X2401Y3086D03*
X2479Y3086D03*
X2558Y3086D03*
X2637Y3086D03*
X2716Y3086D03*
X2794Y3086D03*
X2873Y3086D03*
X2952Y3086D03*
X3031Y3086D03*
X3109Y3086D03*
X3188Y3086D03*
X3267Y3086D03*
X3346Y3086D03*
X3424Y3086D03*
X3503Y3086D03*
X3582Y3086D03*
X3660Y3086D03*
X3739Y3086D03*
X3818Y3086D03*
X3897Y3086D03*
X3975Y3086D03*
X4054Y3086D03*
X4133Y3086D03*
X4212Y3086D03*
X4290Y3086D03*
X4369Y3086D03*
X4448Y3086D03*
X4527Y3086D03*
X4605Y3086D03*
G54D10*
X5975Y3012D03*
G54D18*
X4857Y1189D03*
X4857Y1149D03*
X4857Y1169D03*
X5091Y854D03*
X5051Y854D03*
X5071Y854D03*
X5381Y1189D03*
X5381Y1149D03*
X5381Y1169D03*
X5614Y854D03*
X5575Y854D03*
X5595Y854D03*
G54D19*
X6708Y3039D03*
X6707Y3327D03*
X6560Y3164D03*
G54D20*
X2694Y382D03*
X2498Y382D03*
X2301Y382D03*
X2694Y186D03*
X2498Y186D03*
X2301Y186D03*
G54D11*
X7706Y3212D03*
X7506Y3212D03*
X7306Y3212D03*
X7106Y3212D03*
X996Y3342D03*
X896Y3342D03*
X796Y3342D03*
X696Y3342D03*
X596Y3342D03*
X496Y3342D03*
X396Y3342D03*
X296Y3342D03*
X196Y3342D03*
X96Y3342D03*
G54D10*
X1869Y2752D03*
X1672Y2618D03*
X1668Y2535D03*
G54D11*
X1576Y1807D03*
X1676Y1807D03*
X1776Y1807D03*
X1876Y1807D03*
X1976Y1807D03*
X2076Y1807D03*
X2176Y1807D03*
G54D21*
X3321Y873D03*
G54D22*
X3611Y753D03*
X3697Y753D03*
X3783Y753D03*
X3869Y753D03*
X3955Y753D03*
X3655Y853D03*
X3741Y853D03*
X3827Y853D03*
X3914Y853D03*
X4000Y853D03*
X3611Y953D03*
X3697Y953D03*
X3783Y953D03*
X3869Y953D03*
X3955Y953D03*
G54D21*
X4305Y873D03*
G54D11*
X1775Y2134D03*
X1875Y2134D03*
X1975Y2134D03*
X1775Y2234D03*
X1875Y2234D03*
X1975Y2234D03*
G54D10*
X3058Y1917D03*
G36*
X1650Y3169D02*
X1650Y3460D01*
X1736Y3460D01*
X1736Y3169D01*
X1650Y3169D01*
G37*
D02*
G36*
X1807Y3169D02*
X1807Y3460D01*
X1894Y3460D01*
X1894Y3169D01*
X1807Y3169D01*
G37*
D02*
G36*
X1965Y3169D02*
X1965Y3460D01*
X2051Y3460D01*
X2051Y3169D01*
X1965Y3169D01*
G37*
D02*
G36*
X2122Y3169D02*
X2122Y3460D01*
X2209Y3460D01*
X2209Y3169D01*
X2122Y3169D01*
G37*
D02*
G36*
X2280Y3169D02*
X2280Y3460D01*
X2366Y3460D01*
X2366Y3169D01*
X2280Y3169D01*
G37*
D02*
G36*
X2437Y3169D02*
X2437Y3460D01*
X2524Y3460D01*
X2524Y3169D01*
X2437Y3169D01*
G37*
D02*
G36*
X2595Y3169D02*
X2595Y3460D01*
X2681Y3460D01*
X2681Y3169D01*
X2595Y3169D01*
G37*
D02*
G36*
X2752Y3169D02*
X2752Y3460D01*
X2839Y3460D01*
X2839Y3169D01*
X2752Y3169D01*
G37*
D02*
G36*
X2910Y3169D02*
X2910Y3460D01*
X2996Y3460D01*
X2996Y3169D01*
X2910Y3169D01*
G37*
D02*
G36*
X3067Y3169D02*
X3067Y3460D01*
X3154Y3460D01*
X3154Y3169D01*
X3067Y3169D01*
G37*
D02*
G36*
X3225Y3169D02*
X3225Y3460D01*
X3311Y3460D01*
X3311Y3169D01*
X3225Y3169D01*
G37*
D02*
G36*
X3382Y3169D02*
X3382Y3460D01*
X3469Y3460D01*
X3469Y3169D01*
X3382Y3169D01*
G37*
D02*
G36*
X3540Y3169D02*
X3540Y3460D01*
X3626Y3460D01*
X3626Y3169D01*
X3540Y3169D01*
G37*
D02*
G36*
X3697Y3169D02*
X3697Y3460D01*
X3784Y3460D01*
X3784Y3169D01*
X3697Y3169D01*
G37*
D02*
G36*
X3855Y3169D02*
X3855Y3460D01*
X3941Y3460D01*
X3941Y3169D01*
X3855Y3169D01*
G37*
D02*
G36*
X4012Y3169D02*
X4012Y3460D01*
X4099Y3460D01*
X4099Y3169D01*
X4012Y3169D01*
G37*
D02*
G36*
X4170Y3169D02*
X4170Y3460D01*
X4256Y3460D01*
X4256Y3169D01*
X4170Y3169D01*
G37*
D02*
G36*
X4327Y3169D02*
X4327Y3460D01*
X4414Y3460D01*
X4414Y3169D01*
X4327Y3169D01*
G37*
D02*
G36*
X4484Y3169D02*
X4484Y3460D01*
X4571Y3460D01*
X4571Y3169D01*
X4484Y3169D01*
G37*
D02*
G36*
X4642Y3169D02*
X4642Y3460D01*
X4729Y3460D01*
X4729Y3169D01*
X4642Y3169D01*
G37*
D02*
G36*
X4799Y3169D02*
X4799Y3460D01*
X4886Y3460D01*
X4886Y3169D01*
X4799Y3169D01*
G37*
D02*
G36*
X5114Y3169D02*
X5114Y3460D01*
X5201Y3460D01*
X5201Y3169D01*
X5114Y3169D01*
G37*
D02*
G36*
X5272Y3169D02*
X5272Y3460D01*
X5358Y3460D01*
X5358Y3169D01*
X5272Y3169D01*
G37*
D02*
G36*
X5429Y3169D02*
X5429Y3460D01*
X5673Y3460D01*
X5673Y3169D01*
X5429Y3169D01*
G37*
D02*
G36*
X5744Y3169D02*
X5744Y3460D01*
X5988Y3460D01*
X5988Y3169D01*
X5744Y3169D01*
G37*
D02*
G54D23*
G36*
X1650Y3240D02*
X1736Y3240D01*
X1736Y3164D01*
X1650Y3164D01*
X1650Y3240D01*
G37*
D02*
G36*
X1807Y3240D02*
X1894Y3240D01*
X1894Y3164D01*
X1807Y3164D01*
X1807Y3240D01*
G37*
D02*
G36*
X1965Y3240D02*
X2051Y3240D01*
X2051Y3164D01*
X1965Y3164D01*
X1965Y3240D01*
G37*
D02*
G36*
X2122Y3240D02*
X2209Y3240D01*
X2209Y3164D01*
X2122Y3164D01*
X2122Y3240D01*
G37*
D02*
G36*
X2280Y3240D02*
X2366Y3240D01*
X2366Y3164D01*
X2280Y3164D01*
X2280Y3240D01*
G37*
D02*
G36*
X2437Y3240D02*
X2524Y3240D01*
X2524Y3164D01*
X2437Y3164D01*
X2437Y3240D01*
G37*
D02*
G36*
X2595Y3240D02*
X2681Y3240D01*
X2681Y3164D01*
X2595Y3164D01*
X2595Y3240D01*
G37*
D02*
G36*
X2752Y3240D02*
X2839Y3240D01*
X2839Y3164D01*
X2752Y3164D01*
X2752Y3240D01*
G37*
D02*
G36*
X2910Y3240D02*
X2996Y3240D01*
X2996Y3164D01*
X2910Y3164D01*
X2910Y3240D01*
G37*
D02*
G36*
X3067Y3240D02*
X3154Y3240D01*
X3154Y3164D01*
X3067Y3164D01*
X3067Y3240D01*
G37*
D02*
G36*
X3225Y3240D02*
X3311Y3240D01*
X3311Y3164D01*
X3225Y3164D01*
X3225Y3240D01*
G37*
D02*
G36*
X3382Y3240D02*
X3469Y3240D01*
X3469Y3164D01*
X3382Y3164D01*
X3382Y3240D01*
G37*
D02*
G36*
X3540Y3240D02*
X3626Y3240D01*
X3626Y3164D01*
X3540Y3164D01*
X3540Y3240D01*
G37*
D02*
G36*
X3697Y3240D02*
X3784Y3240D01*
X3784Y3164D01*
X3697Y3164D01*
X3697Y3240D01*
G37*
D02*
G36*
X3855Y3240D02*
X3941Y3240D01*
X3941Y3164D01*
X3855Y3164D01*
X3855Y3240D01*
G37*
D02*
G36*
X4012Y3240D02*
X4099Y3240D01*
X4099Y3164D01*
X4012Y3164D01*
X4012Y3240D01*
G37*
D02*
G36*
X4170Y3240D02*
X4256Y3240D01*
X4256Y3164D01*
X4170Y3164D01*
X4170Y3240D01*
G37*
D02*
G36*
X4327Y3240D02*
X4414Y3240D01*
X4414Y3164D01*
X4327Y3164D01*
X4327Y3240D01*
G37*
D02*
G36*
X4484Y3240D02*
X4571Y3240D01*
X4571Y3164D01*
X4484Y3164D01*
X4484Y3240D01*
G37*
D02*
G36*
X4642Y3240D02*
X4729Y3240D01*
X4729Y3164D01*
X4642Y3164D01*
X4642Y3240D01*
G37*
D02*
G36*
X4799Y3240D02*
X4886Y3240D01*
X4886Y3164D01*
X4799Y3164D01*
X4799Y3240D01*
G37*
D02*
G54D24*
X5430Y3460D02*
X5673Y3460D01*
X5745Y3460D02*
X5988Y3460D01*
X5430Y3459D02*
X5673Y3459D01*
X5745Y3459D02*
X5988Y3459D01*
X5430Y3458D02*
X5673Y3458D01*
X5745Y3458D02*
X5988Y3458D01*
X5430Y3457D02*
X5673Y3457D01*
X5745Y3457D02*
X5988Y3457D01*
X5430Y3456D02*
X5673Y3456D01*
X5745Y3456D02*
X5988Y3456D01*
X5430Y3455D02*
X5673Y3455D01*
X5745Y3455D02*
X5988Y3455D01*
X5430Y3454D02*
X5673Y3454D01*
X5745Y3454D02*
X5988Y3454D01*
X5430Y3453D02*
X5673Y3453D01*
X5745Y3453D02*
X5988Y3453D01*
X5430Y3452D02*
X5673Y3452D01*
X5745Y3452D02*
X5988Y3452D01*
X5430Y3451D02*
X5673Y3451D01*
X5745Y3451D02*
X5988Y3451D01*
X5430Y3450D02*
X5673Y3450D01*
X5745Y3450D02*
X5988Y3450D01*
X5430Y3449D02*
X5673Y3449D01*
X5745Y3449D02*
X5988Y3449D01*
X5430Y3448D02*
X5673Y3448D01*
X5745Y3448D02*
X5988Y3448D01*
X5430Y3447D02*
X5673Y3447D01*
X5745Y3447D02*
X5988Y3447D01*
X5430Y3446D02*
X5673Y3446D01*
X5745Y3446D02*
X5988Y3446D01*
X5430Y3445D02*
X5673Y3445D01*
X5745Y3445D02*
X5988Y3445D01*
X5430Y3444D02*
X5673Y3444D01*
X5745Y3444D02*
X5988Y3444D01*
X5430Y3443D02*
X5673Y3443D01*
X5745Y3443D02*
X5988Y3443D01*
X5430Y3442D02*
X5673Y3442D01*
X5745Y3442D02*
X5988Y3442D01*
X5430Y3441D02*
X5673Y3441D01*
X5745Y3441D02*
X5988Y3441D01*
X5430Y3440D02*
X5673Y3440D01*
X5745Y3440D02*
X5988Y3440D01*
X5430Y3439D02*
X5673Y3439D01*
X5745Y3439D02*
X5988Y3439D01*
X5430Y3438D02*
X5673Y3438D01*
X5745Y3438D02*
X5988Y3438D01*
X5430Y3437D02*
X5673Y3437D01*
X5745Y3437D02*
X5988Y3437D01*
X5430Y3436D02*
X5673Y3436D01*
X5745Y3436D02*
X5988Y3436D01*
X5430Y3435D02*
X5673Y3435D01*
X5745Y3435D02*
X5988Y3435D01*
X5430Y3434D02*
X5673Y3434D01*
X5745Y3434D02*
X5988Y3434D01*
X5430Y3433D02*
X5673Y3433D01*
X5745Y3433D02*
X5988Y3433D01*
X5430Y3432D02*
X5673Y3432D01*
X5745Y3432D02*
X5988Y3432D01*
X5430Y3431D02*
X5673Y3431D01*
X5745Y3431D02*
X5988Y3431D01*
X5430Y3430D02*
X5673Y3430D01*
X5745Y3430D02*
X5988Y3430D01*
X5430Y3429D02*
X5673Y3429D01*
X5745Y3429D02*
X5988Y3429D01*
X5430Y3428D02*
X5673Y3428D01*
X5745Y3428D02*
X5988Y3428D01*
X5430Y3427D02*
X5673Y3427D01*
X5745Y3427D02*
X5988Y3427D01*
X5430Y3426D02*
X5673Y3426D01*
X5745Y3426D02*
X5988Y3426D01*
X5430Y3425D02*
X5673Y3425D01*
X5745Y3425D02*
X5988Y3425D01*
X5430Y3424D02*
X5673Y3424D01*
X5745Y3424D02*
X5988Y3424D01*
X5430Y3423D02*
X5673Y3423D01*
X5745Y3423D02*
X5988Y3423D01*
X5430Y3422D02*
X5673Y3422D01*
X5745Y3422D02*
X5988Y3422D01*
X5430Y3421D02*
X5673Y3421D01*
X5745Y3421D02*
X5988Y3421D01*
X5430Y3420D02*
X5673Y3420D01*
X5745Y3420D02*
X5988Y3420D01*
X5430Y3419D02*
X5673Y3419D01*
X5745Y3419D02*
X5988Y3419D01*
X5430Y3418D02*
X5673Y3418D01*
X5745Y3418D02*
X5988Y3418D01*
X5430Y3417D02*
X5673Y3417D01*
X5745Y3417D02*
X5988Y3417D01*
X5430Y3416D02*
X5673Y3416D01*
X5745Y3416D02*
X5988Y3416D01*
X5430Y3415D02*
X5673Y3415D01*
X5745Y3415D02*
X5988Y3415D01*
X5430Y3414D02*
X5673Y3414D01*
X5745Y3414D02*
X5988Y3414D01*
X5430Y3413D02*
X5673Y3413D01*
X5745Y3413D02*
X5988Y3413D01*
X5430Y3412D02*
X5673Y3412D01*
X5745Y3412D02*
X5988Y3412D01*
X5430Y3411D02*
X5673Y3411D01*
X5745Y3411D02*
X5988Y3411D01*
X5430Y3410D02*
X5673Y3410D01*
X5745Y3410D02*
X5988Y3410D01*
X5430Y3409D02*
X5673Y3409D01*
X5745Y3409D02*
X5988Y3409D01*
X5430Y3408D02*
X5673Y3408D01*
X5745Y3408D02*
X5988Y3408D01*
X5430Y3407D02*
X5673Y3407D01*
X5745Y3407D02*
X5988Y3407D01*
X5430Y3406D02*
X5673Y3406D01*
X5745Y3406D02*
X5988Y3406D01*
X5430Y3405D02*
X5673Y3405D01*
X5745Y3405D02*
X5988Y3405D01*
X5430Y3404D02*
X5673Y3404D01*
X5745Y3404D02*
X5988Y3404D01*
X5430Y3403D02*
X5673Y3403D01*
X5745Y3403D02*
X5988Y3403D01*
X5430Y3402D02*
X5673Y3402D01*
X5745Y3402D02*
X5988Y3402D01*
X5430Y3401D02*
X5673Y3401D01*
X5745Y3401D02*
X5988Y3401D01*
X5430Y3400D02*
X5673Y3400D01*
X5745Y3400D02*
X5988Y3400D01*
X5430Y3399D02*
X5673Y3399D01*
X5745Y3399D02*
X5988Y3399D01*
X5430Y3398D02*
X5673Y3398D01*
X5745Y3398D02*
X5988Y3398D01*
X5430Y3397D02*
X5673Y3397D01*
X5745Y3397D02*
X5988Y3397D01*
X5430Y3396D02*
X5673Y3396D01*
X5745Y3396D02*
X5988Y3396D01*
X5430Y3395D02*
X5673Y3395D01*
X5745Y3395D02*
X5988Y3395D01*
X5430Y3394D02*
X5673Y3394D01*
X5745Y3394D02*
X5988Y3394D01*
X5430Y3393D02*
X5673Y3393D01*
X5745Y3393D02*
X5988Y3393D01*
X5430Y3392D02*
X5673Y3392D01*
X5745Y3392D02*
X5988Y3392D01*
X5430Y3391D02*
X5673Y3391D01*
X5745Y3391D02*
X5988Y3391D01*
X5430Y3390D02*
X5673Y3390D01*
X5745Y3390D02*
X5988Y3390D01*
X5430Y3389D02*
X5673Y3389D01*
X5745Y3389D02*
X5988Y3389D01*
X5430Y3388D02*
X5673Y3388D01*
X5745Y3388D02*
X5988Y3388D01*
X5430Y3387D02*
X5673Y3387D01*
X5745Y3387D02*
X5988Y3387D01*
X5430Y3386D02*
X5673Y3386D01*
X5745Y3386D02*
X5988Y3386D01*
X5430Y3385D02*
X5673Y3385D01*
X5745Y3385D02*
X5988Y3385D01*
X5430Y3384D02*
X5673Y3384D01*
X5745Y3384D02*
X5988Y3384D01*
X5430Y3383D02*
X5673Y3383D01*
X5745Y3383D02*
X5988Y3383D01*
X5430Y3382D02*
X5673Y3382D01*
X5745Y3382D02*
X5988Y3382D01*
X5430Y3381D02*
X5673Y3381D01*
X5745Y3381D02*
X5988Y3381D01*
X5430Y3380D02*
X5673Y3380D01*
X5745Y3380D02*
X5988Y3380D01*
X5430Y3379D02*
X5673Y3379D01*
X5745Y3379D02*
X5988Y3379D01*
X5430Y3378D02*
X5673Y3378D01*
X5745Y3378D02*
X5988Y3378D01*
X5430Y3377D02*
X5673Y3377D01*
X5745Y3377D02*
X5988Y3377D01*
X5430Y3376D02*
X5673Y3376D01*
X5745Y3376D02*
X5988Y3376D01*
X5430Y3375D02*
X5673Y3375D01*
X5745Y3375D02*
X5988Y3375D01*
X5430Y3374D02*
X5673Y3374D01*
X5745Y3374D02*
X5988Y3374D01*
X5430Y3373D02*
X5673Y3373D01*
X5745Y3373D02*
X5988Y3373D01*
X5430Y3372D02*
X5673Y3372D01*
X5745Y3372D02*
X5988Y3372D01*
X5430Y3371D02*
X5673Y3371D01*
X5745Y3371D02*
X5988Y3371D01*
X5430Y3370D02*
X5673Y3370D01*
X5745Y3370D02*
X5988Y3370D01*
X5430Y3369D02*
X5673Y3369D01*
X5745Y3369D02*
X5988Y3369D01*
X5430Y3368D02*
X5673Y3368D01*
X5745Y3368D02*
X5988Y3368D01*
X5430Y3367D02*
X5673Y3367D01*
X5745Y3367D02*
X5988Y3367D01*
X5430Y3366D02*
X5673Y3366D01*
X5745Y3366D02*
X5988Y3366D01*
X5430Y3365D02*
X5673Y3365D01*
X5745Y3365D02*
X5988Y3365D01*
X5430Y3364D02*
X5673Y3364D01*
X5745Y3364D02*
X5988Y3364D01*
X5430Y3363D02*
X5673Y3363D01*
X5745Y3363D02*
X5988Y3363D01*
X5430Y3362D02*
X5673Y3362D01*
X5745Y3362D02*
X5988Y3362D01*
X5430Y3361D02*
X5673Y3361D01*
X5745Y3361D02*
X5988Y3361D01*
X5430Y3360D02*
X5673Y3360D01*
X5745Y3360D02*
X5988Y3360D01*
X5430Y3359D02*
X5673Y3359D01*
X5745Y3359D02*
X5988Y3359D01*
X5430Y3358D02*
X5673Y3358D01*
X5745Y3358D02*
X5988Y3358D01*
X5430Y3357D02*
X5673Y3357D01*
X5745Y3357D02*
X5988Y3357D01*
X5430Y3356D02*
X5673Y3356D01*
X5745Y3356D02*
X5988Y3356D01*
X5430Y3355D02*
X5673Y3355D01*
X5745Y3355D02*
X5988Y3355D01*
X5430Y3354D02*
X5673Y3354D01*
X5745Y3354D02*
X5988Y3354D01*
X5430Y3353D02*
X5673Y3353D01*
X5745Y3353D02*
X5988Y3353D01*
X5430Y3352D02*
X5673Y3352D01*
X5745Y3352D02*
X5988Y3352D01*
X5430Y3351D02*
X5673Y3351D01*
X5745Y3351D02*
X5988Y3351D01*
X5430Y3350D02*
X5673Y3350D01*
X5745Y3350D02*
X5988Y3350D01*
X5430Y3349D02*
X5673Y3349D01*
X5745Y3349D02*
X5988Y3349D01*
X5430Y3348D02*
X5673Y3348D01*
X5745Y3348D02*
X5988Y3348D01*
X5430Y3347D02*
X5673Y3347D01*
X5745Y3347D02*
X5988Y3347D01*
X5430Y3346D02*
X5673Y3346D01*
X5745Y3346D02*
X5988Y3346D01*
X5430Y3345D02*
X5673Y3345D01*
X5745Y3345D02*
X5988Y3345D01*
X5430Y3344D02*
X5673Y3344D01*
X5745Y3344D02*
X5988Y3344D01*
X5430Y3343D02*
X5673Y3343D01*
X5745Y3343D02*
X5988Y3343D01*
X5430Y3342D02*
X5673Y3342D01*
X5745Y3342D02*
X5988Y3342D01*
X5430Y3341D02*
X5673Y3341D01*
X5745Y3341D02*
X5988Y3341D01*
X5430Y3340D02*
X5673Y3340D01*
X5745Y3340D02*
X5988Y3340D01*
X5430Y3339D02*
X5673Y3339D01*
X5745Y3339D02*
X5988Y3339D01*
X5430Y3338D02*
X5673Y3338D01*
X5745Y3338D02*
X5988Y3338D01*
X5430Y3337D02*
X5673Y3337D01*
X5745Y3337D02*
X5988Y3337D01*
X5430Y3336D02*
X5673Y3336D01*
X5745Y3336D02*
X5988Y3336D01*
X5430Y3335D02*
X5673Y3335D01*
X5745Y3335D02*
X5988Y3335D01*
X5430Y3334D02*
X5673Y3334D01*
X5745Y3334D02*
X5988Y3334D01*
X5430Y3333D02*
X5673Y3333D01*
X5745Y3333D02*
X5988Y3333D01*
X5430Y3332D02*
X5673Y3332D01*
X5745Y3332D02*
X5988Y3332D01*
X5430Y3331D02*
X5673Y3331D01*
X5745Y3331D02*
X5988Y3331D01*
X5430Y3330D02*
X5673Y3330D01*
X5745Y3330D02*
X5988Y3330D01*
X5430Y3329D02*
X5673Y3329D01*
X5745Y3329D02*
X5988Y3329D01*
X5430Y3328D02*
X5673Y3328D01*
X5745Y3328D02*
X5988Y3328D01*
X5430Y3327D02*
X5673Y3327D01*
X5745Y3327D02*
X5988Y3327D01*
X5430Y3326D02*
X5673Y3326D01*
X5745Y3326D02*
X5988Y3326D01*
X5430Y3325D02*
X5673Y3325D01*
X5745Y3325D02*
X5988Y3325D01*
X5430Y3324D02*
X5673Y3324D01*
X5745Y3324D02*
X5988Y3324D01*
X5430Y3323D02*
X5673Y3323D01*
X5745Y3323D02*
X5988Y3323D01*
X5430Y3322D02*
X5673Y3322D01*
X5745Y3322D02*
X5988Y3322D01*
X5430Y3321D02*
X5673Y3321D01*
X5745Y3321D02*
X5988Y3321D01*
X5430Y3320D02*
X5673Y3320D01*
X5745Y3320D02*
X5988Y3320D01*
X5430Y3319D02*
X5673Y3319D01*
X5745Y3319D02*
X5988Y3319D01*
X5430Y3318D02*
X5673Y3318D01*
X5745Y3318D02*
X5988Y3318D01*
X5430Y3317D02*
X5673Y3317D01*
X5745Y3317D02*
X5988Y3317D01*
X5430Y3316D02*
X5673Y3316D01*
X5745Y3316D02*
X5988Y3316D01*
X5430Y3315D02*
X5673Y3315D01*
X5745Y3315D02*
X5988Y3315D01*
X5430Y3314D02*
X5673Y3314D01*
X5745Y3314D02*
X5988Y3314D01*
X5430Y3313D02*
X5673Y3313D01*
X5745Y3313D02*
X5988Y3313D01*
X5430Y3312D02*
X5673Y3312D01*
X5745Y3312D02*
X5988Y3312D01*
X5430Y3311D02*
X5673Y3311D01*
X5745Y3311D02*
X5988Y3311D01*
X5430Y3310D02*
X5673Y3310D01*
X5745Y3310D02*
X5988Y3310D01*
X5430Y3309D02*
X5673Y3309D01*
X5745Y3309D02*
X5988Y3309D01*
X5430Y3308D02*
X5673Y3308D01*
X5745Y3308D02*
X5988Y3308D01*
X5430Y3307D02*
X5673Y3307D01*
X5745Y3307D02*
X5988Y3307D01*
X5430Y3306D02*
X5673Y3306D01*
X5745Y3306D02*
X5988Y3306D01*
X5430Y3305D02*
X5673Y3305D01*
X5745Y3305D02*
X5988Y3305D01*
X5430Y3304D02*
X5673Y3304D01*
X5745Y3304D02*
X5988Y3304D01*
X5430Y3303D02*
X5673Y3303D01*
X5745Y3303D02*
X5988Y3303D01*
X5430Y3302D02*
X5673Y3302D01*
X5745Y3302D02*
X5988Y3302D01*
X5430Y3301D02*
X5673Y3301D01*
X5745Y3301D02*
X5988Y3301D01*
X5430Y3300D02*
X5673Y3300D01*
X5745Y3300D02*
X5988Y3300D01*
X5430Y3299D02*
X5673Y3299D01*
X5745Y3299D02*
X5988Y3299D01*
X5430Y3298D02*
X5673Y3298D01*
X5745Y3298D02*
X5988Y3298D01*
X5430Y3297D02*
X5673Y3297D01*
X5745Y3297D02*
X5988Y3297D01*
X5430Y3296D02*
X5673Y3296D01*
X5745Y3296D02*
X5988Y3296D01*
X5430Y3295D02*
X5673Y3295D01*
X5745Y3295D02*
X5988Y3295D01*
X5430Y3294D02*
X5673Y3294D01*
X5745Y3294D02*
X5988Y3294D01*
X5430Y3293D02*
X5673Y3293D01*
X5745Y3293D02*
X5988Y3293D01*
X5430Y3292D02*
X5673Y3292D01*
X5745Y3292D02*
X5988Y3292D01*
X5430Y3291D02*
X5673Y3291D01*
X5745Y3291D02*
X5988Y3291D01*
X5430Y3290D02*
X5673Y3290D01*
X5745Y3290D02*
X5988Y3290D01*
X5430Y3289D02*
X5673Y3289D01*
X5745Y3289D02*
X5988Y3289D01*
X5430Y3288D02*
X5673Y3288D01*
X5745Y3288D02*
X5988Y3288D01*
X5430Y3287D02*
X5673Y3287D01*
X5745Y3287D02*
X5988Y3287D01*
X5430Y3286D02*
X5673Y3286D01*
X5745Y3286D02*
X5988Y3286D01*
X5430Y3285D02*
X5673Y3285D01*
X5745Y3285D02*
X5988Y3285D01*
X5430Y3284D02*
X5673Y3284D01*
X5745Y3284D02*
X5988Y3284D01*
X5430Y3283D02*
X5673Y3283D01*
X5745Y3283D02*
X5988Y3283D01*
X5430Y3282D02*
X5673Y3282D01*
X5745Y3282D02*
X5988Y3282D01*
X5430Y3281D02*
X5673Y3281D01*
X5745Y3281D02*
X5988Y3281D01*
X5430Y3280D02*
X5673Y3280D01*
X5745Y3280D02*
X5988Y3280D01*
X5430Y3279D02*
X5673Y3279D01*
X5745Y3279D02*
X5988Y3279D01*
X5430Y3278D02*
X5673Y3278D01*
X5745Y3278D02*
X5988Y3278D01*
X5430Y3277D02*
X5673Y3277D01*
X5745Y3277D02*
X5988Y3277D01*
X5430Y3276D02*
X5673Y3276D01*
X5745Y3276D02*
X5988Y3276D01*
X5430Y3275D02*
X5673Y3275D01*
X5745Y3275D02*
X5988Y3275D01*
X5430Y3274D02*
X5673Y3274D01*
X5745Y3274D02*
X5988Y3274D01*
X5430Y3273D02*
X5673Y3273D01*
X5745Y3273D02*
X5988Y3273D01*
X5430Y3272D02*
X5673Y3272D01*
X5745Y3272D02*
X5988Y3272D01*
X5430Y3271D02*
X5673Y3271D01*
X5745Y3271D02*
X5988Y3271D01*
X5430Y3270D02*
X5673Y3270D01*
X5745Y3270D02*
X5988Y3270D01*
X5430Y3269D02*
X5673Y3269D01*
X5745Y3269D02*
X5988Y3269D01*
X5430Y3268D02*
X5673Y3268D01*
X5745Y3268D02*
X5988Y3268D01*
X5430Y3267D02*
X5673Y3267D01*
X5745Y3267D02*
X5988Y3267D01*
X5430Y3266D02*
X5673Y3266D01*
X5745Y3266D02*
X5988Y3266D01*
X5430Y3265D02*
X5673Y3265D01*
X5745Y3265D02*
X5988Y3265D01*
X5430Y3264D02*
X5673Y3264D01*
X5745Y3264D02*
X5988Y3264D01*
X5430Y3263D02*
X5673Y3263D01*
X5745Y3263D02*
X5988Y3263D01*
X5430Y3262D02*
X5673Y3262D01*
X5745Y3262D02*
X5988Y3262D01*
X5430Y3261D02*
X5673Y3261D01*
X5745Y3261D02*
X5988Y3261D01*
X5430Y3260D02*
X5673Y3260D01*
X5745Y3260D02*
X5988Y3260D01*
X5430Y3259D02*
X5673Y3259D01*
X5745Y3259D02*
X5988Y3259D01*
X5430Y3258D02*
X5673Y3258D01*
X5745Y3258D02*
X5988Y3258D01*
X5430Y3257D02*
X5673Y3257D01*
X5745Y3257D02*
X5988Y3257D01*
X5430Y3256D02*
X5673Y3256D01*
X5745Y3256D02*
X5988Y3256D01*
X5430Y3255D02*
X5673Y3255D01*
X5745Y3255D02*
X5988Y3255D01*
X5430Y3254D02*
X5673Y3254D01*
X5745Y3254D02*
X5988Y3254D01*
X5430Y3253D02*
X5673Y3253D01*
X5745Y3253D02*
X5988Y3253D01*
X5430Y3252D02*
X5673Y3252D01*
X5745Y3252D02*
X5988Y3252D01*
X5430Y3251D02*
X5673Y3251D01*
X5745Y3251D02*
X5988Y3251D01*
X5430Y3250D02*
X5673Y3250D01*
X5745Y3250D02*
X5988Y3250D01*
X5430Y3249D02*
X5673Y3249D01*
X5745Y3249D02*
X5988Y3249D01*
X5430Y3248D02*
X5673Y3248D01*
X5745Y3248D02*
X5988Y3248D01*
X5430Y3247D02*
X5673Y3247D01*
X5745Y3247D02*
X5988Y3247D01*
X5430Y3246D02*
X5673Y3246D01*
X5745Y3246D02*
X5988Y3246D01*
X5430Y3245D02*
X5673Y3245D01*
X5745Y3245D02*
X5988Y3245D01*
X5430Y3244D02*
X5673Y3244D01*
X5745Y3244D02*
X5988Y3244D01*
X5430Y3243D02*
X5673Y3243D01*
X5745Y3243D02*
X5988Y3243D01*
X5430Y3242D02*
X5673Y3242D01*
X5745Y3242D02*
X5988Y3242D01*
X5430Y3241D02*
X5673Y3241D01*
X5745Y3241D02*
X5988Y3241D01*
X5430Y3240D02*
X5673Y3240D01*
X5745Y3240D02*
X5988Y3240D01*
X5430Y3239D02*
X5673Y3239D01*
X5745Y3239D02*
X5988Y3239D01*
X5430Y3238D02*
X5673Y3238D01*
X5745Y3238D02*
X5988Y3238D01*
X5430Y3237D02*
X5673Y3237D01*
X5745Y3237D02*
X5988Y3237D01*
X5430Y3236D02*
X5673Y3236D01*
X5745Y3236D02*
X5988Y3236D01*
X5430Y3235D02*
X5673Y3235D01*
X5745Y3235D02*
X5988Y3235D01*
X5430Y3234D02*
X5673Y3234D01*
X5745Y3234D02*
X5988Y3234D01*
X5430Y3233D02*
X5673Y3233D01*
X5745Y3233D02*
X5988Y3233D01*
X5430Y3232D02*
X5673Y3232D01*
X5745Y3232D02*
X5988Y3232D01*
X5430Y3231D02*
X5673Y3231D01*
X5745Y3231D02*
X5988Y3231D01*
X5430Y3230D02*
X5673Y3230D01*
X5745Y3230D02*
X5988Y3230D01*
X5430Y3229D02*
X5673Y3229D01*
X5745Y3229D02*
X5988Y3229D01*
X5430Y3228D02*
X5673Y3228D01*
X5745Y3228D02*
X5988Y3228D01*
X5430Y3227D02*
X5673Y3227D01*
X5745Y3227D02*
X5988Y3227D01*
X5430Y3226D02*
X5673Y3226D01*
X5745Y3226D02*
X5988Y3226D01*
X5430Y3225D02*
X5673Y3225D01*
X5745Y3225D02*
X5988Y3225D01*
X5430Y3224D02*
X5673Y3224D01*
X5745Y3224D02*
X5988Y3224D01*
X5430Y3223D02*
X5673Y3223D01*
X5745Y3223D02*
X5988Y3223D01*
X5430Y3222D02*
X5673Y3222D01*
X5745Y3222D02*
X5988Y3222D01*
X5430Y3221D02*
X5673Y3221D01*
X5745Y3221D02*
X5988Y3221D01*
X5430Y3220D02*
X5673Y3220D01*
X5745Y3220D02*
X5988Y3220D01*
X5430Y3219D02*
X5673Y3219D01*
X5745Y3219D02*
X5988Y3219D01*
X5430Y3218D02*
X5673Y3218D01*
X5745Y3218D02*
X5988Y3218D01*
X5430Y3217D02*
X5673Y3217D01*
X5745Y3217D02*
X5988Y3217D01*
X5430Y3216D02*
X5673Y3216D01*
X5745Y3216D02*
X5988Y3216D01*
X5430Y3215D02*
X5673Y3215D01*
X5745Y3215D02*
X5988Y3215D01*
X5430Y3214D02*
X5673Y3214D01*
X5745Y3214D02*
X5988Y3214D01*
X5430Y3213D02*
X5673Y3213D01*
X5745Y3213D02*
X5988Y3213D01*
X5430Y3212D02*
X5673Y3212D01*
X5745Y3212D02*
X5988Y3212D01*
X5430Y3211D02*
X5673Y3211D01*
X5745Y3211D02*
X5988Y3211D01*
X5430Y3210D02*
X5673Y3210D01*
X5745Y3210D02*
X5988Y3210D01*
X5430Y3209D02*
X5673Y3209D01*
X5745Y3209D02*
X5988Y3209D01*
X5430Y3208D02*
X5673Y3208D01*
X5745Y3208D02*
X5988Y3208D01*
X5430Y3207D02*
X5673Y3207D01*
X5745Y3207D02*
X5988Y3207D01*
X5430Y3206D02*
X5673Y3206D01*
X5745Y3206D02*
X5988Y3206D01*
X5430Y3205D02*
X5673Y3205D01*
X5745Y3205D02*
X5988Y3205D01*
X5430Y3204D02*
X5673Y3204D01*
X5745Y3204D02*
X5988Y3204D01*
X5430Y3203D02*
X5673Y3203D01*
X5745Y3203D02*
X5988Y3203D01*
X5430Y3202D02*
X5673Y3202D01*
X5745Y3202D02*
X5988Y3202D01*
X5430Y3201D02*
X5673Y3201D01*
X5745Y3201D02*
X5988Y3201D01*
X5430Y3200D02*
X5673Y3200D01*
X5745Y3200D02*
X5988Y3200D01*
X5430Y3199D02*
X5673Y3199D01*
X5745Y3199D02*
X5988Y3199D01*
X5430Y3198D02*
X5673Y3198D01*
X5745Y3198D02*
X5988Y3198D01*
X5430Y3197D02*
X5673Y3197D01*
X5745Y3197D02*
X5988Y3197D01*
X5430Y3196D02*
X5673Y3196D01*
X5745Y3196D02*
X5988Y3196D01*
X5430Y3195D02*
X5673Y3195D01*
X5745Y3195D02*
X5988Y3195D01*
X5430Y3194D02*
X5673Y3194D01*
X5745Y3194D02*
X5988Y3194D01*
X5430Y3193D02*
X5673Y3193D01*
X5745Y3193D02*
X5988Y3193D01*
X5430Y3192D02*
X5673Y3192D01*
X5745Y3192D02*
X5988Y3192D01*
X5430Y3191D02*
X5673Y3191D01*
X5745Y3191D02*
X5988Y3191D01*
X5430Y3190D02*
X5673Y3190D01*
X5745Y3190D02*
X5988Y3190D01*
X5430Y3189D02*
X5673Y3189D01*
X5745Y3189D02*
X5988Y3189D01*
X5430Y3188D02*
X5673Y3188D01*
X5745Y3188D02*
X5988Y3188D01*
X5430Y3187D02*
X5673Y3187D01*
X5745Y3187D02*
X5988Y3187D01*
X5430Y3186D02*
X5673Y3186D01*
X5745Y3186D02*
X5988Y3186D01*
X5430Y3185D02*
X5673Y3185D01*
X5745Y3185D02*
X5988Y3185D01*
X5430Y3184D02*
X5673Y3184D01*
X5745Y3184D02*
X5988Y3184D01*
X5430Y3183D02*
X5673Y3183D01*
X5745Y3183D02*
X5988Y3183D01*
X5430Y3182D02*
X5673Y3182D01*
X5745Y3182D02*
X5988Y3182D01*
X5430Y3181D02*
X5673Y3181D01*
X5745Y3181D02*
X5988Y3181D01*
X5430Y3180D02*
X5673Y3180D01*
X5745Y3180D02*
X5988Y3180D01*
X5430Y3179D02*
X5673Y3179D01*
X5745Y3179D02*
X5988Y3179D01*
X5430Y3178D02*
X5673Y3178D01*
X5745Y3178D02*
X5988Y3178D01*
X5430Y3177D02*
X5673Y3177D01*
X5745Y3177D02*
X5988Y3177D01*
X5430Y3176D02*
X5673Y3176D01*
X5745Y3176D02*
X5988Y3176D01*
X5430Y3175D02*
X5673Y3175D01*
X5745Y3175D02*
X5988Y3175D01*
X5430Y3174D02*
X5673Y3174D01*
X5745Y3174D02*
X5988Y3174D01*
X5430Y3173D02*
X5673Y3173D01*
X5745Y3173D02*
X5988Y3173D01*
X5430Y3172D02*
X5673Y3172D01*
X5745Y3172D02*
X5988Y3172D01*
X1651Y3171D02*
X1736Y3171D01*
X1809Y3171D02*
X1894Y3171D01*
X1966Y3171D02*
X2051Y3171D01*
X2124Y3171D02*
X2209Y3171D01*
X2281Y3171D02*
X2366Y3171D01*
X2439Y3171D02*
X2524Y3171D01*
X2596Y3171D02*
X2681Y3171D01*
X2753Y3171D02*
X2839Y3171D01*
X2911Y3171D02*
X2996Y3171D01*
X3068Y3171D02*
X3153Y3171D01*
X3226Y3171D02*
X3311Y3171D01*
X3383Y3171D02*
X3468Y3171D01*
X3541Y3171D02*
X3626Y3171D01*
X3698Y3171D02*
X3783Y3171D01*
X3856Y3171D02*
X3941Y3171D01*
X4013Y3171D02*
X4098Y3171D01*
X4171Y3171D02*
X4256Y3171D01*
X4328Y3171D02*
X4413Y3171D01*
X4486Y3171D02*
X4571Y3171D01*
X4643Y3171D02*
X4728Y3171D01*
X4801Y3171D02*
X4886Y3171D01*
X5430Y3171D02*
X5673Y3171D01*
X5745Y3171D02*
X5988Y3171D01*
X1651Y3170D02*
X1736Y3170D01*
X1808Y3170D02*
X1894Y3170D01*
X1966Y3170D02*
X2051Y3170D01*
X2123Y3170D02*
X2209Y3170D01*
X2281Y3170D02*
X2366Y3170D01*
X2438Y3170D02*
X2524Y3170D01*
X2596Y3170D02*
X2681Y3170D01*
X2753Y3170D02*
X2839Y3170D01*
X2911Y3170D02*
X2996Y3170D01*
X3068Y3170D02*
X3154Y3170D01*
X3226Y3170D02*
X3311Y3170D01*
X3383Y3170D02*
X3469Y3170D01*
X3541Y3170D02*
X3626Y3170D01*
X3698Y3170D02*
X3784Y3170D01*
X3856Y3170D02*
X3941Y3170D01*
X4013Y3170D02*
X4099Y3170D01*
X4171Y3170D02*
X4256Y3170D01*
X4328Y3170D02*
X4414Y3170D01*
X4486Y3170D02*
X4571Y3170D01*
X4643Y3170D02*
X4728Y3170D01*
X4800Y3170D02*
X4886Y3170D01*
X5430Y3170D02*
X5673Y3170D01*
X5745Y3170D02*
X5988Y3170D01*
X1651Y3169D02*
X1736Y3169D01*
X1808Y3169D02*
X1894Y3169D01*
X1966Y3169D02*
X2051Y3169D01*
X2123Y3169D02*
X2209Y3169D01*
X2281Y3169D02*
X2366Y3169D01*
X2438Y3169D02*
X2524Y3169D01*
X2596Y3169D02*
X2681Y3169D01*
X2753Y3169D02*
X2839Y3169D01*
X2911Y3169D02*
X2996Y3169D01*
X3068Y3169D02*
X3154Y3169D01*
X3226Y3169D02*
X3311Y3169D01*
X3383Y3169D02*
X3469Y3169D01*
X3541Y3169D02*
X3626Y3169D01*
X3698Y3169D02*
X3784Y3169D01*
X3856Y3169D02*
X3941Y3169D01*
X4013Y3169D02*
X4099Y3169D01*
X4171Y3169D02*
X4256Y3169D01*
X4328Y3169D02*
X4413Y3169D01*
X4486Y3169D02*
X4571Y3169D01*
X4643Y3169D02*
X4728Y3169D01*
X4801Y3169D02*
X4886Y3169D01*
X5431Y3169D02*
X5673Y3169D01*
X5746Y3169D02*
X5988Y3169D01*
X1651Y3168D02*
X1736Y3168D01*
X1808Y3168D02*
X1894Y3168D01*
X1966Y3168D02*
X2051Y3168D01*
X2123Y3168D02*
X2209Y3168D01*
X2281Y3168D02*
X2366Y3168D01*
X2438Y3168D02*
X2524Y3168D01*
X2596Y3168D02*
X2681Y3168D01*
X2753Y3168D02*
X2839Y3168D01*
X2911Y3168D02*
X2996Y3168D01*
X3068Y3168D02*
X3154Y3168D01*
X3226Y3168D02*
X3311Y3168D01*
X3383Y3168D02*
X3469Y3168D01*
X3541Y3168D02*
X3626Y3168D01*
X3698Y3168D02*
X3784Y3168D01*
X3856Y3168D02*
X3941Y3168D01*
X4013Y3168D02*
X4098Y3168D01*
X4171Y3168D02*
X4256Y3168D01*
X4328Y3168D02*
X4413Y3168D01*
X4486Y3168D02*
X4571Y3168D01*
X4643Y3168D02*
X4728Y3168D01*
X4801Y3168D02*
X4886Y3168D01*
X5432Y3168D02*
X5672Y3168D01*
X5747Y3168D02*
X5987Y3168D01*
X1651Y3167D02*
X1736Y3167D01*
X1809Y3167D02*
X1894Y3167D01*
X1966Y3167D02*
X2051Y3167D01*
X2123Y3167D02*
X2209Y3167D01*
X2281Y3167D02*
X2366Y3167D01*
X2438Y3167D02*
X2524Y3167D01*
X2596Y3167D02*
X2681Y3167D01*
X2753Y3167D02*
X2839Y3167D01*
X2911Y3167D02*
X2996Y3167D01*
X3068Y3167D02*
X3154Y3167D01*
X3226Y3167D02*
X3311Y3167D01*
X3383Y3167D02*
X3469Y3167D01*
X3541Y3167D02*
X3626Y3167D01*
X3698Y3167D02*
X3783Y3167D01*
X3856Y3167D02*
X3941Y3167D01*
X4013Y3167D02*
X4098Y3167D01*
X4171Y3167D02*
X4256Y3167D01*
X4328Y3167D02*
X4413Y3167D01*
X4486Y3167D02*
X4571Y3167D01*
X4643Y3167D02*
X4728Y3167D01*
X4801Y3167D02*
X4886Y3167D01*
X5433Y3167D02*
X5670Y3167D01*
X5749Y3167D02*
X5986Y3167D01*
X1651Y3166D02*
X1736Y3166D01*
X1809Y3166D02*
X1894Y3166D01*
X1966Y3166D02*
X2051Y3166D01*
X2124Y3166D02*
X2209Y3166D01*
X2281Y3166D02*
X2366Y3166D01*
X2439Y3166D02*
X2524Y3166D01*
X2596Y3166D02*
X2681Y3166D01*
X2754Y3166D02*
X2838Y3166D01*
X2911Y3166D02*
X2996Y3166D01*
X3068Y3166D02*
X3153Y3166D01*
X3226Y3166D02*
X3311Y3166D01*
X3383Y3166D02*
X3468Y3166D01*
X3541Y3166D02*
X3626Y3166D01*
X3698Y3166D02*
X3783Y3166D01*
X3856Y3166D02*
X3941Y3166D01*
X4013Y3166D02*
X4098Y3166D01*
X4171Y3166D02*
X4256Y3166D01*
X4328Y3166D02*
X4413Y3166D01*
X4486Y3166D02*
X4571Y3166D01*
X4643Y3166D02*
X4728Y3166D01*
X4801Y3166D02*
X4886Y3166D01*
X5435Y3166D02*
X5669Y3166D01*
X5750Y3166D02*
X5984Y3166D01*
X1651Y3165D02*
X1736Y3165D01*
X1809Y3165D02*
X1893Y3165D01*
X1966Y3165D02*
X2051Y3165D01*
X2124Y3165D02*
X2208Y3165D01*
X2281Y3165D02*
X2366Y3165D01*
X2439Y3165D02*
X2523Y3165D01*
X2596Y3165D02*
X2681Y3165D01*
X2754Y3165D02*
X2838Y3165D01*
X2911Y3165D02*
X2996Y3165D01*
X3069Y3165D02*
X3153Y3165D01*
X3226Y3165D02*
X3311Y3165D01*
X3384Y3165D02*
X3468Y3165D01*
X3541Y3165D02*
X3626Y3165D01*
X3699Y3165D02*
X3783Y3165D01*
X3856Y3165D02*
X3941Y3165D01*
X4014Y3165D02*
X4098Y3165D01*
X4171Y3165D02*
X4256Y3165D01*
X4328Y3165D02*
X4413Y3165D01*
X4486Y3165D02*
X4571Y3165D01*
X4643Y3165D02*
X4728Y3165D01*
X4801Y3165D02*
X4886Y3165D01*
X5437Y3165D02*
X5667Y3165D01*
X5752Y3165D02*
X5983Y3165D01*
X1651Y3164D02*
X1736Y3164D01*
X1809Y3164D02*
X1893Y3164D01*
X1966Y3164D02*
X2051Y3164D01*
X2124Y3164D02*
X2208Y3164D01*
X2281Y3164D02*
X2366Y3164D01*
X2439Y3164D02*
X2523Y3164D01*
X2596Y3164D02*
X2681Y3164D01*
X2754Y3164D02*
X2838Y3164D01*
X2911Y3164D02*
X2996Y3164D01*
X3069Y3164D02*
X3153Y3164D01*
X3226Y3164D02*
X3311Y3164D01*
X3384Y3164D02*
X3468Y3164D01*
X3541Y3164D02*
X3626Y3164D01*
X3699Y3164D02*
X3783Y3164D01*
X3856Y3164D02*
X3941Y3164D01*
X4014Y3164D02*
X4098Y3164D01*
X4171Y3164D02*
X4255Y3164D01*
X4329Y3164D02*
X4413Y3164D01*
X4486Y3164D02*
X4570Y3164D01*
X4644Y3164D02*
X4728Y3164D01*
X4801Y3164D02*
X4885Y3164D01*
X5438Y3164D02*
X5666Y3164D01*
X5754Y3164D02*
X5981Y3164D01*
X1652Y3163D02*
X1736Y3163D01*
X1809Y3163D02*
X1893Y3163D01*
X1967Y3163D02*
X2051Y3163D01*
X2124Y3163D02*
X2208Y3163D01*
X2282Y3163D02*
X2366Y3163D01*
X2439Y3163D02*
X2523Y3163D01*
X2596Y3163D02*
X2681Y3163D01*
X2754Y3163D02*
X2838Y3163D01*
X2911Y3163D02*
X2995Y3163D01*
X3069Y3163D02*
X3153Y3163D01*
X3226Y3163D02*
X3310Y3163D01*
X3384Y3163D02*
X3468Y3163D01*
X3541Y3163D02*
X3625Y3163D01*
X3699Y3163D02*
X3783Y3163D01*
X3856Y3163D02*
X3940Y3163D01*
X4014Y3163D02*
X4098Y3163D01*
X4171Y3163D02*
X4255Y3163D01*
X4329Y3163D02*
X4413Y3163D01*
X4486Y3163D02*
X4570Y3163D01*
X4644Y3163D02*
X4728Y3163D01*
X4801Y3163D02*
X4885Y3163D01*
X5440Y3163D02*
X5664Y3163D01*
X5756Y3163D02*
X5980Y3163D01*
X1652Y3162D02*
X1735Y3162D01*
X1809Y3162D02*
X1893Y3162D01*
X1967Y3162D02*
X2050Y3162D01*
X2124Y3162D02*
X2208Y3162D01*
X2282Y3162D02*
X2365Y3162D01*
X2439Y3162D02*
X2523Y3162D01*
X2597Y3162D02*
X2680Y3162D01*
X2754Y3162D02*
X2838Y3162D01*
X2912Y3162D02*
X2995Y3162D01*
X3069Y3162D02*
X3153Y3162D01*
X3227Y3162D02*
X3310Y3162D01*
X3384Y3162D02*
X3468Y3162D01*
X3542Y3162D02*
X3625Y3162D01*
X3699Y3162D02*
X3783Y3162D01*
X3857Y3162D02*
X3940Y3162D01*
X4014Y3162D02*
X4098Y3162D01*
X4171Y3162D02*
X4255Y3162D01*
X4329Y3162D02*
X4413Y3162D01*
X4486Y3162D02*
X4570Y3162D01*
X4644Y3162D02*
X4728Y3162D01*
X4801Y3162D02*
X4885Y3162D01*
X5441Y3162D02*
X5663Y3162D01*
X5757Y3162D02*
X5978Y3162D01*
X1652Y3161D02*
X1735Y3161D01*
X1810Y3161D02*
X1893Y3161D01*
X1967Y3161D02*
X2050Y3161D01*
X2125Y3161D02*
X2208Y3161D01*
X2282Y3161D02*
X2365Y3161D01*
X2439Y3161D02*
X2523Y3161D01*
X2597Y3161D02*
X2680Y3161D01*
X2754Y3161D02*
X2838Y3161D01*
X2912Y3161D02*
X2995Y3161D01*
X3069Y3161D02*
X3153Y3161D01*
X3227Y3161D02*
X3310Y3161D01*
X3384Y3161D02*
X3467Y3161D01*
X3542Y3161D02*
X3625Y3161D01*
X3699Y3161D02*
X3782Y3161D01*
X3857Y3161D02*
X3940Y3161D01*
X4014Y3161D02*
X4097Y3161D01*
X4172Y3161D02*
X4255Y3161D01*
X4329Y3161D02*
X4412Y3161D01*
X4487Y3161D02*
X4570Y3161D01*
X4644Y3161D02*
X4727Y3161D01*
X4802Y3161D02*
X4885Y3161D01*
X5443Y3161D02*
X5661Y3161D01*
X5759Y3161D02*
X5977Y3161D01*
X1652Y3160D02*
X1735Y3160D01*
X1810Y3160D02*
X1892Y3160D01*
X1967Y3160D02*
X2050Y3160D01*
X2125Y3160D02*
X2207Y3160D01*
X2282Y3160D02*
X2365Y3160D01*
X2440Y3160D02*
X2522Y3160D01*
X2597Y3160D02*
X2680Y3160D01*
X2755Y3160D02*
X2837Y3160D01*
X2912Y3160D02*
X2995Y3160D01*
X3070Y3160D02*
X3152Y3160D01*
X3227Y3160D02*
X3310Y3160D01*
X3385Y3160D02*
X3467Y3160D01*
X3542Y3160D02*
X3625Y3160D01*
X3700Y3160D02*
X3782Y3160D01*
X3857Y3160D02*
X3940Y3160D01*
X4015Y3160D02*
X4097Y3160D01*
X4172Y3160D02*
X4255Y3160D01*
X4329Y3160D02*
X4412Y3160D01*
X4487Y3160D02*
X4570Y3160D01*
X4644Y3160D02*
X4727Y3160D01*
X4802Y3160D02*
X4885Y3160D01*
X5445Y3160D02*
X5660Y3160D01*
X5761Y3160D02*
X5975Y3160D01*
X1653Y3159D02*
X1735Y3159D01*
X1810Y3159D02*
X1892Y3159D01*
X1968Y3159D02*
X2050Y3159D01*
X2125Y3159D02*
X2207Y3159D01*
X2282Y3159D02*
X2365Y3159D01*
X2440Y3159D02*
X2522Y3159D01*
X2597Y3159D02*
X2680Y3159D01*
X2755Y3159D02*
X2837Y3159D01*
X2912Y3159D02*
X2995Y3159D01*
X3070Y3159D02*
X3152Y3159D01*
X3227Y3159D02*
X3309Y3159D01*
X3385Y3159D02*
X3467Y3159D01*
X3542Y3159D02*
X3624Y3159D01*
X3700Y3159D02*
X3782Y3159D01*
X3857Y3159D02*
X3939Y3159D01*
X4015Y3159D02*
X4097Y3159D01*
X4172Y3159D02*
X4254Y3159D01*
X4330Y3159D02*
X4412Y3159D01*
X4487Y3159D02*
X4569Y3159D01*
X4645Y3159D02*
X4727Y3159D01*
X4802Y3159D02*
X4884Y3159D01*
X5446Y3159D02*
X5658Y3159D01*
X5763Y3159D02*
X5974Y3159D01*
X1653Y3158D02*
X1734Y3158D01*
X1810Y3158D02*
X1892Y3158D01*
X1968Y3158D02*
X2049Y3158D01*
X2125Y3158D02*
X2207Y3158D01*
X2283Y3158D02*
X2364Y3158D01*
X2440Y3158D02*
X2522Y3158D01*
X2598Y3158D02*
X2679Y3158D01*
X2755Y3158D02*
X2837Y3158D01*
X2913Y3158D02*
X2994Y3158D01*
X3070Y3158D02*
X3152Y3158D01*
X3228Y3158D02*
X3309Y3158D01*
X3385Y3158D02*
X3467Y3158D01*
X3543Y3158D02*
X3624Y3158D01*
X3700Y3158D02*
X3782Y3158D01*
X3858Y3158D02*
X3939Y3158D01*
X4015Y3158D02*
X4097Y3158D01*
X4173Y3158D02*
X4254Y3158D01*
X4330Y3158D02*
X4412Y3158D01*
X4488Y3158D02*
X4569Y3158D01*
X4645Y3158D02*
X4726Y3158D01*
X4802Y3158D02*
X4884Y3158D01*
X5448Y3158D02*
X5656Y3158D01*
X5764Y3158D02*
X5972Y3158D01*
X1653Y3157D02*
X1734Y3157D01*
X1811Y3157D02*
X1892Y3157D01*
X1968Y3157D02*
X2049Y3157D01*
X2126Y3157D02*
X2206Y3157D01*
X2283Y3157D02*
X2364Y3157D01*
X2441Y3157D02*
X2521Y3157D01*
X2598Y3157D02*
X2679Y3157D01*
X2756Y3157D02*
X2836Y3157D01*
X2913Y3157D02*
X2994Y3157D01*
X3071Y3157D02*
X3151Y3157D01*
X3228Y3157D02*
X3309Y3157D01*
X3386Y3157D02*
X3466Y3157D01*
X3543Y3157D02*
X3624Y3157D01*
X3700Y3157D02*
X3781Y3157D01*
X3858Y3157D02*
X3939Y3157D01*
X4015Y3157D02*
X4096Y3157D01*
X4173Y3157D02*
X4254Y3157D01*
X4330Y3157D02*
X4411Y3157D01*
X4488Y3157D02*
X4569Y3157D01*
X4645Y3157D02*
X4726Y3157D01*
X4803Y3157D02*
X4884Y3157D01*
X5450Y3157D02*
X5655Y3157D01*
X5766Y3157D02*
X5970Y3157D01*
X1654Y3156D02*
X1734Y3156D01*
X1811Y3156D02*
X1891Y3156D01*
X1969Y3156D02*
X2049Y3156D01*
X2126Y3156D02*
X2206Y3156D01*
X2284Y3156D02*
X2364Y3156D01*
X2441Y3156D02*
X2521Y3156D01*
X2598Y3156D02*
X2679Y3156D01*
X2756Y3156D02*
X2836Y3156D01*
X2913Y3156D02*
X2993Y3156D01*
X3071Y3156D02*
X3151Y3156D01*
X3228Y3156D02*
X3308Y3156D01*
X3386Y3156D02*
X3466Y3156D01*
X3543Y3156D02*
X3623Y3156D01*
X3701Y3156D02*
X3781Y3156D01*
X3858Y3156D02*
X3938Y3156D01*
X4016Y3156D02*
X4096Y3156D01*
X4173Y3156D02*
X4253Y3156D01*
X4331Y3156D02*
X4411Y3156D01*
X4488Y3156D02*
X4568Y3156D01*
X4646Y3156D02*
X4726Y3156D01*
X4803Y3156D02*
X4883Y3156D01*
X5452Y3156D02*
X5653Y3156D01*
X5768Y3156D02*
X5968Y3156D01*
X1654Y3155D02*
X1733Y3155D01*
X1811Y3155D02*
X1891Y3155D01*
X1969Y3155D02*
X2048Y3155D01*
X2126Y3155D02*
X2206Y3155D01*
X2284Y3155D02*
X2363Y3155D01*
X2441Y3155D02*
X2521Y3155D01*
X2599Y3155D02*
X2678Y3155D01*
X2756Y3155D02*
X2836Y3155D01*
X2914Y3155D02*
X2993Y3155D01*
X3071Y3155D02*
X3151Y3155D01*
X3229Y3155D02*
X3308Y3155D01*
X3386Y3155D02*
X3466Y3155D01*
X3544Y3155D02*
X3623Y3155D01*
X3701Y3155D02*
X3781Y3155D01*
X3859Y3155D02*
X3938Y3155D01*
X4016Y3155D02*
X4095Y3155D01*
X4174Y3155D02*
X4253Y3155D01*
X4331Y3155D02*
X4410Y3155D01*
X4489Y3155D02*
X4568Y3155D01*
X4646Y3155D02*
X4725Y3155D01*
X4804Y3155D02*
X4883Y3155D01*
X5454Y3155D02*
X5651Y3155D01*
X5770Y3155D02*
X5967Y3155D01*
X1654Y3154D02*
X1733Y3154D01*
X1812Y3154D02*
X1890Y3154D01*
X1969Y3154D02*
X2048Y3154D01*
X2127Y3154D02*
X2205Y3154D01*
X2284Y3154D02*
X2363Y3154D01*
X2442Y3154D02*
X2520Y3154D01*
X2599Y3154D02*
X2678Y3154D01*
X2757Y3154D02*
X2835Y3154D01*
X2914Y3154D02*
X2993Y3154D01*
X3072Y3154D02*
X3150Y3154D01*
X3229Y3154D02*
X3308Y3154D01*
X3387Y3154D02*
X3465Y3154D01*
X3544Y3154D02*
X3623Y3154D01*
X3702Y3154D02*
X3780Y3154D01*
X3859Y3154D02*
X3938Y3154D01*
X4017Y3154D02*
X4095Y3154D01*
X4174Y3154D02*
X4253Y3154D01*
X4332Y3154D02*
X4410Y3154D01*
X4489Y3154D02*
X4568Y3154D01*
X4646Y3154D02*
X4725Y3154D01*
X4804Y3154D02*
X4882Y3154D01*
X5455Y3154D02*
X5649Y3154D01*
X5772Y3154D02*
X5965Y3154D01*
X1655Y3153D02*
X1732Y3153D01*
X1812Y3153D02*
X1890Y3153D01*
X1970Y3153D02*
X2047Y3153D01*
X2127Y3153D02*
X2205Y3153D01*
X2285Y3153D02*
X2362Y3153D01*
X2442Y3153D02*
X2520Y3153D01*
X2600Y3153D02*
X2677Y3153D01*
X2757Y3153D02*
X2835Y3153D01*
X2915Y3153D02*
X2992Y3153D01*
X3072Y3153D02*
X3150Y3153D01*
X3230Y3153D02*
X3307Y3153D01*
X3387Y3153D02*
X3465Y3153D01*
X3545Y3153D02*
X3622Y3153D01*
X3702Y3153D02*
X3780Y3153D01*
X3860Y3153D02*
X3937Y3153D01*
X4017Y3153D02*
X4095Y3153D01*
X4175Y3153D02*
X4252Y3153D01*
X4332Y3153D02*
X4410Y3153D01*
X4489Y3153D02*
X4567Y3153D01*
X4647Y3153D02*
X4725Y3153D01*
X4804Y3153D02*
X4882Y3153D01*
X5457Y3153D02*
X5648Y3153D01*
X5774Y3153D02*
X5963Y3153D01*
X1655Y3152D02*
X1732Y3152D01*
X1813Y3152D02*
X1889Y3152D01*
X1970Y3152D02*
X2047Y3152D01*
X2128Y3152D02*
X2204Y3152D01*
X2285Y3152D02*
X2362Y3152D01*
X2443Y3152D02*
X2519Y3152D01*
X2600Y3152D02*
X2677Y3152D01*
X2758Y3152D02*
X2834Y3152D01*
X2915Y3152D02*
X2992Y3152D01*
X3073Y3152D02*
X3149Y3152D01*
X3230Y3152D02*
X3307Y3152D01*
X3388Y3152D02*
X3464Y3152D01*
X3545Y3152D02*
X3622Y3152D01*
X3703Y3152D02*
X3779Y3152D01*
X3860Y3152D02*
X3937Y3152D01*
X4018Y3152D02*
X4094Y3152D01*
X4175Y3152D02*
X4252Y3152D01*
X4332Y3152D02*
X4409Y3152D01*
X4490Y3152D02*
X4567Y3152D01*
X4647Y3152D02*
X4724Y3152D01*
X4805Y3152D02*
X4882Y3152D01*
X5459Y3152D02*
X5646Y3152D01*
X5776Y3152D02*
X5961Y3152D01*
X1656Y3151D02*
X1731Y3151D01*
X1813Y3151D02*
X1889Y3151D01*
X1971Y3151D02*
X2046Y3151D01*
X2128Y3151D02*
X2204Y3151D01*
X2286Y3151D02*
X2361Y3151D01*
X2443Y3151D02*
X2519Y3151D01*
X2601Y3151D02*
X2676Y3151D01*
X2758Y3151D02*
X2834Y3151D01*
X2916Y3151D02*
X2991Y3151D01*
X3073Y3151D02*
X3149Y3151D01*
X3231Y3151D02*
X3306Y3151D01*
X3388Y3151D02*
X3464Y3151D01*
X3546Y3151D02*
X3621Y3151D01*
X3703Y3151D02*
X3779Y3151D01*
X3861Y3151D02*
X3936Y3151D01*
X4018Y3151D02*
X4094Y3151D01*
X4175Y3151D02*
X4251Y3151D01*
X4333Y3151D02*
X4409Y3151D01*
X4490Y3151D02*
X4566Y3151D01*
X4648Y3151D02*
X4724Y3151D01*
X4805Y3151D02*
X4881Y3151D01*
X5461Y3151D02*
X5644Y3151D01*
X5778Y3151D02*
X5960Y3151D01*
X1656Y3150D02*
X1731Y3150D01*
X1814Y3150D02*
X1888Y3150D01*
X1971Y3150D02*
X2046Y3150D01*
X2129Y3150D02*
X2203Y3150D01*
X2286Y3150D02*
X2361Y3150D01*
X2444Y3150D02*
X2518Y3150D01*
X2601Y3150D02*
X2676Y3150D01*
X2759Y3150D02*
X2833Y3150D01*
X2916Y3150D02*
X2991Y3150D01*
X3074Y3150D02*
X3148Y3150D01*
X3231Y3150D02*
X3306Y3150D01*
X3389Y3150D02*
X3463Y3150D01*
X3546Y3150D02*
X3621Y3150D01*
X3704Y3150D02*
X3778Y3150D01*
X3861Y3150D02*
X3936Y3150D01*
X4019Y3150D02*
X4093Y3150D01*
X4176Y3150D02*
X4251Y3150D01*
X4334Y3150D02*
X4408Y3150D01*
X4491Y3150D02*
X4566Y3150D01*
X4648Y3150D02*
X4723Y3150D01*
X4806Y3150D02*
X4880Y3150D01*
X5463Y3150D02*
X5642Y3150D01*
X5780Y3150D02*
X5958Y3150D01*
X1657Y3149D02*
X1730Y3149D01*
X1814Y3149D02*
X1888Y3149D01*
X1972Y3149D02*
X2045Y3149D01*
X2129Y3149D02*
X2203Y3149D01*
X2287Y3149D02*
X2360Y3149D01*
X2444Y3149D02*
X2518Y3149D01*
X2602Y3149D02*
X2675Y3149D01*
X2759Y3149D02*
X2833Y3149D01*
X2917Y3149D02*
X2990Y3149D01*
X3074Y3149D02*
X3148Y3149D01*
X3232Y3149D02*
X3305Y3149D01*
X3389Y3149D02*
X3463Y3149D01*
X3547Y3149D02*
X3620Y3149D01*
X3704Y3149D02*
X3778Y3149D01*
X3862Y3149D02*
X3935Y3149D01*
X4019Y3149D02*
X4093Y3149D01*
X4177Y3149D02*
X4250Y3149D01*
X4334Y3149D02*
X4407Y3149D01*
X4492Y3149D02*
X4565Y3149D01*
X4649Y3149D02*
X4722Y3149D01*
X4807Y3149D02*
X4880Y3149D01*
X5465Y3149D02*
X5640Y3149D01*
X5783Y3149D02*
X5956Y3149D01*
X1658Y3148D02*
X1730Y3148D01*
X1815Y3148D02*
X1887Y3148D01*
X1973Y3148D02*
X2045Y3148D01*
X2130Y3148D02*
X2202Y3148D01*
X2287Y3148D02*
X2360Y3148D01*
X2445Y3148D02*
X2517Y3148D01*
X2602Y3148D02*
X2675Y3148D01*
X2760Y3148D02*
X2832Y3148D01*
X2917Y3148D02*
X2990Y3148D01*
X3075Y3148D02*
X3147Y3148D01*
X3232Y3148D02*
X3304Y3148D01*
X3390Y3148D02*
X3462Y3148D01*
X3547Y3148D02*
X3619Y3148D01*
X3705Y3148D02*
X3777Y3148D01*
X3862Y3148D02*
X3934Y3148D01*
X4020Y3148D02*
X4092Y3148D01*
X4177Y3148D02*
X4249Y3148D01*
X4335Y3148D02*
X4407Y3148D01*
X4492Y3148D02*
X4564Y3148D01*
X4650Y3148D02*
X4722Y3148D01*
X4807Y3148D02*
X4879Y3148D01*
X5467Y3148D02*
X5638Y3148D01*
X5785Y3148D02*
X5954Y3148D01*
X1658Y3147D02*
X1729Y3147D01*
X1816Y3147D02*
X1887Y3147D01*
X1973Y3147D02*
X2044Y3147D01*
X2131Y3147D02*
X2202Y3147D01*
X2288Y3147D02*
X2359Y3147D01*
X2446Y3147D02*
X2516Y3147D01*
X2603Y3147D02*
X2674Y3147D01*
X2761Y3147D02*
X2831Y3147D01*
X2918Y3147D02*
X2989Y3147D01*
X3076Y3147D02*
X3146Y3147D01*
X3233Y3147D02*
X3304Y3147D01*
X3390Y3147D02*
X3461Y3147D01*
X3548Y3147D02*
X3619Y3147D01*
X3705Y3147D02*
X3776Y3147D01*
X3863Y3147D02*
X3934Y3147D01*
X4020Y3147D02*
X4091Y3147D01*
X4178Y3147D02*
X4249Y3147D01*
X4335Y3147D02*
X4406Y3147D01*
X4493Y3147D02*
X4564Y3147D01*
X4650Y3147D02*
X4721Y3147D01*
X4808Y3147D02*
X4879Y3147D01*
X5470Y3147D02*
X5636Y3147D01*
X5787Y3147D02*
X5952Y3147D01*
X1659Y3146D02*
X1728Y3146D01*
X1816Y3146D02*
X1886Y3146D01*
X1974Y3146D02*
X2043Y3146D01*
X2131Y3146D02*
X2201Y3146D01*
X2289Y3146D02*
X2358Y3146D01*
X2446Y3146D02*
X2516Y3146D01*
X2604Y3146D02*
X2673Y3146D01*
X2761Y3146D02*
X2831Y3146D01*
X2919Y3146D02*
X2988Y3146D01*
X3076Y3146D02*
X3146Y3146D01*
X3234Y3146D02*
X3303Y3146D01*
X3391Y3146D02*
X3461Y3146D01*
X3549Y3146D02*
X3618Y3146D01*
X3706Y3146D02*
X3776Y3146D01*
X3864Y3146D02*
X3933Y3146D01*
X4021Y3146D02*
X4091Y3146D01*
X4179Y3146D02*
X4248Y3146D01*
X4336Y3146D02*
X4405Y3146D01*
X4494Y3146D02*
X4563Y3146D01*
X4651Y3146D02*
X4720Y3146D01*
X4809Y3146D02*
X4878Y3146D01*
X5472Y3146D02*
X5634Y3146D01*
X5790Y3146D02*
X5949Y3146D01*
X1660Y3145D02*
X1728Y3145D01*
X1817Y3145D02*
X1885Y3145D01*
X1975Y3145D02*
X2043Y3145D01*
X2132Y3145D02*
X2200Y3145D01*
X2290Y3145D02*
X2358Y3145D01*
X2447Y3145D02*
X2515Y3145D01*
X2605Y3145D02*
X2672Y3145D01*
X2762Y3145D02*
X2830Y3145D01*
X2920Y3145D02*
X2987Y3145D01*
X3077Y3145D02*
X3145Y3145D01*
X3234Y3145D02*
X3302Y3145D01*
X3392Y3145D02*
X3460Y3145D01*
X3549Y3145D02*
X3617Y3145D01*
X3707Y3145D02*
X3775Y3145D01*
X3864Y3145D02*
X3932Y3145D01*
X4022Y3145D02*
X4090Y3145D01*
X4179Y3145D02*
X4247Y3145D01*
X4337Y3145D02*
X4405Y3145D01*
X4494Y3145D02*
X4562Y3145D01*
X4652Y3145D02*
X4720Y3145D01*
X4809Y3145D02*
X4877Y3145D01*
X5474Y3145D02*
X5632Y3145D01*
X5792Y3145D02*
X5947Y3145D01*
X1660Y3144D02*
X1727Y3144D01*
X1818Y3144D02*
X1884Y3144D01*
X1975Y3144D02*
X2042Y3144D01*
X2133Y3144D02*
X2199Y3144D01*
X2290Y3144D02*
X2357Y3144D01*
X2448Y3144D02*
X2514Y3144D01*
X2605Y3144D02*
X2672Y3144D01*
X2763Y3144D02*
X2829Y3144D01*
X2920Y3144D02*
X2987Y3144D01*
X3078Y3144D02*
X3144Y3144D01*
X3235Y3144D02*
X3302Y3144D01*
X3393Y3144D02*
X3459Y3144D01*
X3550Y3144D02*
X3617Y3144D01*
X3708Y3144D02*
X3774Y3144D01*
X3865Y3144D02*
X3932Y3144D01*
X4023Y3144D02*
X4089Y3144D01*
X4180Y3144D02*
X4247Y3144D01*
X4338Y3144D02*
X4404Y3144D01*
X4495Y3144D02*
X4561Y3144D01*
X4653Y3144D02*
X4719Y3144D01*
X4810Y3144D02*
X4876Y3144D01*
X5476Y3144D02*
X5629Y3144D01*
X5794Y3144D02*
X5945Y3144D01*
X1661Y3143D02*
X1726Y3143D01*
X1819Y3143D02*
X1883Y3143D01*
X1976Y3143D02*
X2041Y3143D01*
X2134Y3143D02*
X2198Y3143D01*
X2291Y3143D02*
X2356Y3143D01*
X2449Y3143D02*
X2513Y3143D01*
X2606Y3143D02*
X2671Y3143D01*
X2764Y3143D02*
X2828Y3143D01*
X2921Y3143D02*
X2986Y3143D01*
X3079Y3143D02*
X3143Y3143D01*
X3236Y3143D02*
X3301Y3143D01*
X3394Y3143D02*
X3458Y3143D01*
X3551Y3143D02*
X3616Y3143D01*
X3708Y3143D02*
X3773Y3143D01*
X3866Y3143D02*
X3931Y3143D01*
X4023Y3143D02*
X4088Y3143D01*
X4181Y3143D02*
X4246Y3143D01*
X4338Y3143D02*
X4403Y3143D01*
X4496Y3143D02*
X4561Y3143D01*
X4653Y3143D02*
X4718Y3143D01*
X4811Y3143D02*
X4876Y3143D01*
X5479Y3143D02*
X5627Y3143D01*
X5797Y3143D02*
X5943Y3143D01*
X1662Y3142D02*
X1725Y3142D01*
X1820Y3142D02*
X1883Y3142D01*
X1977Y3142D02*
X2040Y3142D01*
X2135Y3142D02*
X2198Y3142D01*
X2292Y3142D02*
X2355Y3142D01*
X2450Y3142D02*
X2512Y3142D01*
X2607Y3142D02*
X2670Y3142D01*
X2765Y3142D02*
X2827Y3142D01*
X2922Y3142D02*
X2985Y3142D01*
X3079Y3142D02*
X3142Y3142D01*
X3237Y3142D02*
X3300Y3142D01*
X3394Y3142D02*
X3457Y3142D01*
X3552Y3142D02*
X3615Y3142D01*
X3709Y3142D02*
X3772Y3142D01*
X3867Y3142D02*
X3930Y3142D01*
X4024Y3142D02*
X4087Y3142D01*
X4182Y3142D02*
X4245Y3142D01*
X4339Y3142D02*
X4402Y3142D01*
X4497Y3142D02*
X4560Y3142D01*
X4654Y3142D02*
X4717Y3142D01*
X4812Y3142D02*
X4875Y3142D01*
X5481Y3142D02*
X5625Y3142D01*
X5800Y3142D02*
X5940Y3142D01*
X1663Y3141D02*
X1724Y3141D01*
X1821Y3141D02*
X1882Y3141D01*
X1978Y3141D02*
X2039Y3141D01*
X2136Y3141D02*
X2197Y3141D01*
X2293Y3141D02*
X2354Y3141D01*
X2450Y3141D02*
X2512Y3141D01*
X2608Y3141D02*
X2669Y3141D01*
X2765Y3141D02*
X2827Y3141D01*
X2923Y3141D02*
X2984Y3141D01*
X3080Y3141D02*
X3142Y3141D01*
X3238Y3141D02*
X3299Y3141D01*
X3395Y3141D02*
X3456Y3141D01*
X3553Y3141D02*
X3614Y3141D01*
X3710Y3141D02*
X3771Y3141D01*
X3868Y3141D02*
X3929Y3141D01*
X4025Y3141D02*
X4086Y3141D01*
X4183Y3141D02*
X4244Y3141D01*
X4340Y3141D02*
X4401Y3141D01*
X4498Y3141D02*
X4559Y3141D01*
X4655Y3141D02*
X4716Y3141D01*
X4813Y3141D02*
X4874Y3141D01*
X5484Y3141D02*
X5622Y3141D01*
X5802Y3141D02*
X5938Y3141D01*
X1664Y3140D02*
X1723Y3140D01*
X1822Y3140D02*
X1881Y3140D01*
X1979Y3140D02*
X2038Y3140D01*
X2137Y3140D02*
X2196Y3140D01*
X2294Y3140D02*
X2353Y3140D01*
X2451Y3140D02*
X2511Y3140D01*
X2609Y3140D02*
X2668Y3140D01*
X2766Y3140D02*
X2826Y3140D01*
X2924Y3140D02*
X2983Y3140D01*
X3081Y3140D02*
X3140Y3140D01*
X3239Y3140D02*
X3298Y3140D01*
X3396Y3140D02*
X3455Y3140D01*
X3554Y3140D02*
X3613Y3140D01*
X3711Y3140D02*
X3770Y3140D01*
X3869Y3140D02*
X3928Y3140D01*
X4026Y3140D02*
X4085Y3140D01*
X4184Y3140D02*
X4243Y3140D01*
X4341Y3140D02*
X4400Y3140D01*
X4499Y3140D02*
X4558Y3140D01*
X4656Y3140D02*
X4715Y3140D01*
X4814Y3140D02*
X4873Y3140D01*
X5486Y3140D02*
X5619Y3140D01*
X5805Y3140D02*
X5935Y3140D01*
X1665Y3139D02*
X1722Y3139D01*
X1823Y3139D02*
X1880Y3139D01*
X1980Y3139D02*
X2037Y3139D01*
X2138Y3139D02*
X2195Y3139D01*
X2295Y3139D02*
X2352Y3139D01*
X2453Y3139D02*
X2509Y3139D01*
X2610Y3139D02*
X2667Y3139D01*
X2768Y3139D02*
X2824Y3139D01*
X2925Y3139D02*
X2982Y3139D01*
X3083Y3139D02*
X3139Y3139D01*
X3240Y3139D02*
X3297Y3139D01*
X3397Y3139D02*
X3454Y3139D01*
X3555Y3139D02*
X3612Y3139D01*
X3712Y3139D02*
X3769Y3139D01*
X3870Y3139D02*
X3927Y3139D01*
X4027Y3139D02*
X4084Y3139D01*
X4185Y3139D02*
X4242Y3139D01*
X4342Y3139D02*
X4399Y3139D01*
X4500Y3139D02*
X4557Y3139D01*
X4657Y3139D02*
X4714Y3139D01*
X4815Y3139D02*
X4872Y3139D01*
X5489Y3139D02*
X5617Y3139D01*
X5808Y3139D02*
X5932Y3139D01*
X1666Y3138D02*
X1721Y3138D01*
X1824Y3138D02*
X1878Y3138D01*
X1981Y3138D02*
X2036Y3138D01*
X2139Y3138D02*
X2193Y3138D01*
X2296Y3138D02*
X2351Y3138D01*
X2454Y3138D02*
X2508Y3138D01*
X2611Y3138D02*
X2666Y3138D01*
X2769Y3138D02*
X2823Y3138D01*
X2926Y3138D02*
X2981Y3138D01*
X3084Y3138D02*
X3138Y3138D01*
X3241Y3138D02*
X3296Y3138D01*
X3399Y3138D02*
X3453Y3138D01*
X3556Y3138D02*
X3611Y3138D01*
X3714Y3138D02*
X3768Y3138D01*
X3871Y3138D02*
X3926Y3138D01*
X4028Y3138D02*
X4083Y3138D01*
X4186Y3138D02*
X4241Y3138D01*
X4343Y3138D02*
X4398Y3138D01*
X4501Y3138D02*
X4556Y3138D01*
X4658Y3138D02*
X4713Y3138D01*
X4816Y3138D02*
X4871Y3138D01*
X5492Y3138D02*
X5614Y3138D01*
X5811Y3138D02*
X5930Y3138D01*
X1668Y3137D02*
X1720Y3137D01*
X1825Y3137D02*
X1877Y3137D01*
X1983Y3137D02*
X2035Y3137D01*
X2140Y3137D02*
X2192Y3137D01*
X2297Y3137D02*
X2350Y3137D01*
X2455Y3137D02*
X2507Y3137D01*
X2612Y3137D02*
X2665Y3137D01*
X2770Y3137D02*
X2822Y3137D01*
X2927Y3137D02*
X2980Y3137D01*
X3085Y3137D02*
X3137Y3137D01*
X3242Y3137D02*
X3295Y3137D01*
X3400Y3137D02*
X3452Y3137D01*
X3557Y3137D02*
X3609Y3137D01*
X3715Y3137D02*
X3767Y3137D01*
X3872Y3137D02*
X3924Y3137D01*
X4030Y3137D02*
X4082Y3137D01*
X4187Y3137D02*
X4239Y3137D01*
X4345Y3137D02*
X4397Y3137D01*
X4502Y3137D02*
X4554Y3137D01*
X4660Y3137D02*
X4712Y3137D01*
X4817Y3137D02*
X4869Y3137D01*
X5495Y3137D02*
X5611Y3137D01*
X5815Y3137D02*
X5926Y3137D01*
X1669Y3136D02*
X1718Y3136D01*
X1826Y3136D02*
X1876Y3136D01*
X1984Y3136D02*
X2033Y3136D01*
X2141Y3136D02*
X2191Y3136D01*
X2299Y3136D02*
X2348Y3136D01*
X2456Y3136D02*
X2506Y3136D01*
X2614Y3136D02*
X2663Y3136D01*
X2771Y3136D02*
X2821Y3136D01*
X2929Y3136D02*
X2978Y3136D01*
X3086Y3136D02*
X3136Y3136D01*
X3244Y3136D02*
X3293Y3136D01*
X3401Y3136D02*
X3451Y3136D01*
X3559Y3136D02*
X3608Y3136D01*
X3716Y3136D02*
X3766Y3136D01*
X3874Y3136D02*
X3923Y3136D01*
X4031Y3136D02*
X4081Y3136D01*
X4189Y3136D02*
X4238Y3136D01*
X4346Y3136D02*
X4396Y3136D01*
X4504Y3136D02*
X4553Y3136D01*
X4661Y3136D02*
X4710Y3136D01*
X4818Y3136D02*
X4868Y3136D01*
X5498Y3136D02*
X5608Y3136D01*
X5818Y3136D02*
X5923Y3136D01*
X1670Y3135D02*
X1717Y3135D01*
X1828Y3135D02*
X1874Y3135D01*
X1985Y3135D02*
X2032Y3135D01*
X2143Y3135D02*
X2189Y3135D01*
X2300Y3135D02*
X2347Y3135D01*
X2458Y3135D02*
X2504Y3135D01*
X2615Y3135D02*
X2662Y3135D01*
X2773Y3135D02*
X2819Y3135D01*
X2930Y3135D02*
X2977Y3135D01*
X3088Y3135D02*
X3134Y3135D01*
X3245Y3135D02*
X3292Y3135D01*
X3403Y3135D02*
X3449Y3135D01*
X3560Y3135D02*
X3607Y3135D01*
X3718Y3135D02*
X3764Y3135D01*
X3875Y3135D02*
X3922Y3135D01*
X4033Y3135D02*
X4079Y3135D01*
X4190Y3135D02*
X4237Y3135D01*
X4347Y3135D02*
X4394Y3135D01*
X4505Y3135D02*
X4552Y3135D01*
X4662Y3135D02*
X4709Y3135D01*
X4820Y3135D02*
X4867Y3135D01*
X5502Y3135D02*
X5605Y3135D01*
X5822Y3135D02*
X5920Y3135D01*
X1672Y3134D02*
X1715Y3134D01*
X1829Y3134D02*
X1873Y3134D01*
X1987Y3134D02*
X2030Y3134D01*
X2144Y3134D02*
X2188Y3134D01*
X2302Y3134D02*
X2345Y3134D01*
X2459Y3134D02*
X2503Y3134D01*
X2617Y3134D02*
X2660Y3134D01*
X2774Y3134D02*
X2818Y3134D01*
X2932Y3134D02*
X2975Y3134D01*
X3089Y3134D02*
X3133Y3134D01*
X3247Y3134D02*
X3290Y3134D01*
X3404Y3134D02*
X3448Y3134D01*
X3562Y3134D02*
X3605Y3134D01*
X3719Y3134D02*
X3763Y3134D01*
X3877Y3134D02*
X3920Y3134D01*
X4034Y3134D02*
X4078Y3134D01*
X4192Y3134D02*
X4235Y3134D01*
X4349Y3134D02*
X4392Y3134D01*
X4507Y3134D02*
X4550Y3134D01*
X4664Y3134D02*
X4707Y3134D01*
X4822Y3134D02*
X4865Y3134D01*
X5505Y3134D02*
X5601Y3134D01*
X5826Y3134D02*
X5916Y3134D01*
X1674Y3133D02*
X1714Y3133D01*
X1831Y3133D02*
X1871Y3133D01*
X1989Y3133D02*
X2029Y3133D01*
X2146Y3133D02*
X2186Y3133D01*
X2304Y3133D02*
X2344Y3133D01*
X2461Y3133D02*
X2501Y3133D01*
X2619Y3133D02*
X2659Y3133D01*
X2776Y3133D02*
X2816Y3133D01*
X2933Y3133D02*
X2973Y3133D01*
X3091Y3133D02*
X3131Y3133D01*
X3248Y3133D02*
X3288Y3133D01*
X3406Y3133D02*
X3446Y3133D01*
X3563Y3133D02*
X3603Y3133D01*
X3721Y3133D02*
X3761Y3133D01*
X3878Y3133D02*
X3918Y3133D01*
X4036Y3133D02*
X4076Y3133D01*
X4193Y3133D02*
X4233Y3133D01*
X4351Y3133D02*
X4391Y3133D01*
X4508Y3133D02*
X4548Y3133D01*
X4666Y3133D02*
X4706Y3133D01*
X4823Y3133D02*
X4863Y3133D01*
X5509Y3133D02*
X5597Y3133D01*
X5830Y3133D02*
X5912Y3133D01*
X1676Y3132D02*
X1712Y3132D01*
X1833Y3132D02*
X1869Y3132D01*
X1991Y3132D02*
X2027Y3132D01*
X2148Y3132D02*
X2184Y3132D01*
X2306Y3132D02*
X2341Y3132D01*
X2463Y3132D02*
X2499Y3132D01*
X2621Y3132D02*
X2656Y3132D01*
X2778Y3132D02*
X2814Y3132D01*
X2936Y3132D02*
X2971Y3132D01*
X3093Y3132D02*
X3129Y3132D01*
X3251Y3132D02*
X3286Y3132D01*
X3408Y3132D02*
X3444Y3132D01*
X3565Y3132D02*
X3601Y3132D01*
X3723Y3132D02*
X3759Y3132D01*
X3880Y3132D02*
X3916Y3132D01*
X4038Y3132D02*
X4074Y3132D01*
X4195Y3132D02*
X4231Y3132D01*
X4353Y3132D02*
X4389Y3132D01*
X4510Y3132D02*
X4546Y3132D01*
X4668Y3132D02*
X4704Y3132D01*
X4825Y3132D02*
X4861Y3132D01*
X5513Y3132D02*
X5593Y3132D01*
X5835Y3132D02*
X5908Y3132D01*
X1678Y3131D02*
X1709Y3131D01*
X1835Y3131D02*
X1867Y3131D01*
X1993Y3131D02*
X2024Y3131D01*
X2150Y3131D02*
X2182Y3131D01*
X2308Y3131D02*
X2339Y3131D01*
X2465Y3131D02*
X2497Y3131D01*
X2623Y3131D02*
X2654Y3131D01*
X2780Y3131D02*
X2812Y3131D01*
X2938Y3131D02*
X2969Y3131D01*
X3095Y3131D02*
X3127Y3131D01*
X3253Y3131D02*
X3284Y3131D01*
X3410Y3131D02*
X3442Y3131D01*
X3568Y3131D02*
X3599Y3131D01*
X3725Y3131D02*
X3757Y3131D01*
X3883Y3131D02*
X3914Y3131D01*
X4040Y3131D02*
X4072Y3131D01*
X4198Y3131D02*
X4229Y3131D01*
X4355Y3131D02*
X4386Y3131D01*
X4513Y3131D02*
X4544Y3131D01*
X4670Y3131D02*
X4701Y3131D01*
X4828Y3131D02*
X4859Y3131D01*
X5518Y3131D02*
X5588Y3131D01*
X5840Y3131D02*
X5902Y3131D01*
X1681Y3130D02*
X1707Y3130D01*
X1838Y3130D02*
X1864Y3130D01*
X1996Y3130D02*
X2022Y3130D01*
X2153Y3130D02*
X2179Y3130D01*
X2311Y3130D02*
X2336Y3130D01*
X2468Y3130D02*
X2494Y3130D01*
X2626Y3130D02*
X2651Y3130D01*
X2783Y3130D02*
X2809Y3130D01*
X2941Y3130D02*
X2966Y3130D01*
X3098Y3130D02*
X3124Y3130D01*
X3256Y3130D02*
X3281Y3130D01*
X3413Y3130D02*
X3439Y3130D01*
X3570Y3130D02*
X3596Y3130D01*
X3728Y3130D02*
X3754Y3130D01*
X3885Y3130D02*
X3911Y3130D01*
X4043Y3130D02*
X4069Y3130D01*
X4200Y3130D02*
X4226Y3130D01*
X4358Y3130D02*
X4384Y3130D01*
X4515Y3130D02*
X4541Y3130D01*
X4673Y3130D02*
X4699Y3130D01*
X4830Y3130D02*
X4856Y3130D01*
X5524Y3130D02*
X5583Y3130D01*
X5847Y3130D02*
X5896Y3130D01*
X1684Y3129D02*
X1703Y3129D01*
X1842Y3129D02*
X1860Y3129D01*
X1999Y3129D02*
X2018Y3129D01*
X2157Y3129D02*
X2175Y3129D01*
X2314Y3129D02*
X2333Y3129D01*
X2472Y3129D02*
X2490Y3129D01*
X2629Y3129D02*
X2648Y3129D01*
X2787Y3129D02*
X2805Y3129D01*
X2944Y3129D02*
X2963Y3129D01*
X3102Y3129D02*
X3120Y3129D01*
X3259Y3129D02*
X3278Y3129D01*
X3417Y3129D02*
X3435Y3129D01*
X3574Y3129D02*
X3593Y3129D01*
X3732Y3129D02*
X3750Y3129D01*
X3889Y3129D02*
X3908Y3129D01*
X4047Y3129D02*
X4065Y3129D01*
X4204Y3129D02*
X4223Y3129D01*
X4361Y3129D02*
X4380Y3129D01*
X4519Y3129D02*
X4538Y3129D01*
X4676Y3129D02*
X4695Y3129D01*
X4834Y3129D02*
X4853Y3129D01*
X5530Y3129D02*
X5576Y3129D01*
X5856Y3129D02*
X5887Y3129D01*
X1691Y3128D02*
X1696Y3128D01*
X1848Y3128D02*
X1854Y3128D01*
X2006Y3128D02*
X2011Y3128D01*
X2163Y3128D02*
X2169Y3128D01*
X2321Y3128D02*
X2326Y3128D01*
X2478Y3128D02*
X2484Y3128D01*
X2636Y3128D02*
X2641Y3128D01*
X2793Y3128D02*
X2799Y3128D01*
X2951Y3128D02*
X2956Y3128D01*
X3108Y3128D02*
X3114Y3128D01*
X3266Y3128D02*
X3271Y3128D01*
X3423Y3128D02*
X3429Y3128D01*
X3581Y3128D02*
X3586Y3128D01*
X3738Y3128D02*
X3744Y3128D01*
X3896Y3128D02*
X3901Y3128D01*
X4053Y3128D02*
X4059Y3128D01*
X4211Y3128D02*
X4216Y3128D01*
X4368Y3128D02*
X4373Y3128D01*
X4526Y3128D02*
X4531Y3128D01*
X4683Y3128D02*
X4688Y3128D01*
X4841Y3128D02*
X4846Y3128D01*
X5540Y3128D02*
X5567Y3128D01*
D02*
G04 End of Mask0*
M02*